<svg version="1.1" id="Layer_1" xmlns="http://www.w3.org/2000/svg" xmlns:xlink="http://www.w3.org/1999/xlink" x="0px" y="0px" viewBox="0 0 694 285" style="enable-background:new 0 0 694 285;" xml:space="preserve">
<style type="text/css">
	.st0{clip-path:url(#SVGID_2_);fill:#EF964A;}
	.st1{clip-path:url(#SVGID_4_);fill:#EF964A;}
	.st2{clip-path:url(#SVGID_6_);fill:#EF964A;}
	.st3{clip-path:url(#SVGID_8_);fill:#EF964A;}
	.st4{clip-path:url(#SVGID_10_);}
	.st5{clip-path:url(#SVGID_12_);}
	.st6{clip-path:url(#SVGID_14_);}
	.st7{clip-path:url(#SVGID_16_);}
</style>
<g>
	<g>
		<defs>
			<rect id="SVGID_1_" x="-196" y="-383" width="1080" height="1080"/>
		</defs>
		<clipPath id="SVGID_2_">
			<use xlink:href="#SVGID_1_" style="overflow:visible;"/>
		</clipPath>
		<path class="st0" d="M665.3,24c0.9-14.8-8.8-20.4-19.4-20.4C640,3.6,303.1-18,107.3,217.1c-14.7,17.7-22,26.6-22,26.6    S76,164.5,28.8,117.3c-11.4-11.4-30.4,4.3-22.5,14.8C21.3,152,55.9,173,69,270.7c1.5,11.1,15,9.3,19.1,3    C263,1,646.5,38.8,646.5,38.8C657.4,38.8,663.5,33.3,665.3,24"/>
	</g>
	<g>
		<defs>
			<rect id="SVGID_3_" x="-196" y="-383" width="1080" height="1080"/>
		</defs>
		<clipPath id="SVGID_4_">
			<use xlink:href="#SVGID_3_" style="overflow:visible;"/>
		</clipPath>
		<path class="st1" d="M101.3,128c0,8.2-6.6,14.8-14.8,14.8c-8.2,0-14.8-6.6-14.8-14.8s6.6-14.8,14.8-14.8    C94.7,113.2,101.3,119.8,101.3,128"/>
	</g>
	<g>
		<defs>
			<rect id="SVGID_5_" x="-196" y="-383" width="1080" height="1080"/>
		</defs>
		<clipPath id="SVGID_6_">
			<use xlink:href="#SVGID_5_" style="overflow:visible;"/>
		</clipPath>
		<path class="st2" d="M531.3,279.3h-45.6c-12.6,0-21.2-2.2-25.8-6.5c-4.6-4.4-6.8-12.9-6.8-25.7v-73.2c0-12.7,2.3-21.3,6.8-25.7    c4.6-4.4,13.1-6.5,25.8-6.5h37.1l35.3,0.8v23.6h-68.7c-1.8,0-3.1,0.3-3.7,0.9c-0.7,0.6-1,1.7-1,3.2v79.4c0,1.7,0.3,2.8,1,3.4    c0.6,0.6,1.9,0.9,3.7,0.9h37.8c1.8,0,3.1-0.3,3.8-0.9c0.7-0.6,1.1-1.7,1.1-3.4v-27.3h-22.8v-23.2h54.4v48    c0,12.7-2.3,21.3-6.8,25.7C552.3,277.1,543.8,279.3,531.3,279.3"/>
	</g>
	<g>
		<defs>
			<rect id="SVGID_7_" x="-196" y="-383" width="1080" height="1080"/>
		</defs>
		<clipPath id="SVGID_8_">
			<use xlink:href="#SVGID_7_" style="overflow:visible;"/>
		</clipPath>
		<path class="st3" d="M656.3,279.3H606c-12.6,0-21.2-2.2-25.7-6.5c-4.6-4.4-6.8-12.9-6.8-25.7v-73.5c0-12.7,2.3-21.3,6.8-25.7    s13.1-6.5,25.7-6.5h50.3c12.6,0,21.2,2.2,25.8,6.5c4.5,4.4,6.8,12.9,6.8,25.7v73.5c0,12.7-2.3,21.3-6.8,25.7    C677.5,277.1,668.9,279.3,656.3,279.3 M657.3,249.6v-79.8c0-1.6-0.3-2.6-1-3.2c-0.7-0.6-2-0.9-3.9-0.9h-42.7    c-1.8,0-3.1,0.3-3.7,0.9c-0.7,0.6-1,1.7-1,3.2v79.8c0,1.7,0.3,2.8,1,3.4c0.7,0.6,1.9,0.9,3.7,0.9h42.7c2,0,3.3-0.3,3.9-0.9    C657,252.5,657.3,251.3,657.3,249.6"/>
	</g>
	<g>
		<defs>
			<rect id="SVGID_9_" x="-196" y="-383" width="1080" height="1080"/>
		</defs>
		<clipPath id="SVGID_10_">
			<use xlink:href="#SVGID_9_" style="overflow:visible;"/>
		</clipPath>
		<path class="st4" d="M198.3,279.3h-87.9V113.2h88.4c14.8,0,24.8,2.3,30.1,6.9c5.3,4.6,8,13.5,8,26.7v18.1c0,6.7-1,12.1-2.9,16.2    c-1.9,4.1-4,6.8-6.2,8.1s-5.1,2.4-8.6,3.3c6.2,2.1,11,5.3,14.3,9.8c3.3,4.4,5,11.7,5,21.7v20.5c0,13.7-2.7,22.9-8.1,27.6    C225.1,276.9,214.3,279.3,198.3,279.3 M199.3,173.7v-26.9c0-2.1-0.4-3.5-1.2-4.2c-0.8-0.7-2.4-1.1-4.8-1.1H149v37.2h44.3    c2.4,0,4-0.3,4.8-1C198.9,177.1,199.3,175.8,199.3,173.7 M200,244v-31.7c0-2.1-0.4-3.5-1.2-4.2c-0.8-0.7-2.3-1.1-4.5-1.1H149v42    h45.3c2.2,0,3.7-0.4,4.5-1.1C199.6,247.2,200,245.9,200,244"/>
	</g>
	<g>
		<defs>
			<rect id="SVGID_11_" x="-196" y="-383" width="1080" height="1080"/>
		</defs>
		<clipPath id="SVGID_12_">
			<use xlink:href="#SVGID_11_" style="overflow:visible;"/>
		</clipPath>
		<path class="st5" d="M355.9,279.3h-34.7l-25-50.9h-17v50.9h-31.6v-136h72.2c12.2,0,20.5,1.9,25,5.7c4.4,3.8,6.6,10.9,6.6,21.3    v30.4c0,9.4-2,16.1-5.9,20.2c-3.9,4.1-9.5,6.6-16.8,7.5L355.9,279.3z M319.8,199.9v-28.7c0-1.7-0.3-2.8-1-3.4    c-0.7-0.6-1.9-0.9-3.7-0.9h-35.9v37.3h35.9c1.8,0,3.1-0.3,3.7-0.9C319.5,202.7,319.8,201.6,319.8,199.9"/>
	</g>
	<g>
		<defs>
			<rect id="SVGID_13_" x="-196" y="-383" width="1080" height="1080"/>
		</defs>
		<clipPath id="SVGID_14_">
			<use xlink:href="#SVGID_13_" style="overflow:visible;"/>
		</clipPath>
		<rect x="360.8" y="143.3" class="st6" width="31.6" height="136"/>
	</g>
	<g>
		<defs>
			<rect id="SVGID_15_" x="-196" y="-383" width="1080" height="1080"/>
		</defs>
		<clipPath id="SVGID_16_">
			<use xlink:href="#SVGID_15_" style="overflow:visible;"/>
		</clipPath>
		<polygon class="st7" points="495.4,279.3 403.5,279.3 403.5,143.3 435.1,143.3 435.1,253.9 495.4,253.9   "/>
	</g>
</g>
</svg>