<svg width="38" height="38" viewBox="0 0 38 38" fill="none" xmlns="http://www.w3.org/2000/svg">
<path d="M20.9067 17.8482C21.498 18.0245 22.0615 18.2831 22.5807 18.6164C23.111 18.9651 23.5532 19.4334 23.8724 19.982C24.2028 20.5897 24.3702 21.2726 24.3582 21.9643C24.386 22.8565 24.1202 23.7331 23.6016 24.4596C23.056 25.2053 22.307 25.7779 21.4444 26.1089C20.5164 26.4793 19.523 26.6578 18.5241 26.6336C17.3487 26.6667 16.1827 26.4146 15.1258 25.899C14.4312 25.5334 13.8348 25.0059 13.3871 24.3611C12.9391 23.7412 12.6881 23.0009 12.6667 22.2363C12.6667 21.8927 12.8032 21.5632 13.0462 21.3202C13.2892 21.0772 13.6187 20.9408 13.9623 20.9408C14.306 20.9408 14.6355 21.0772 14.8785 21.3202C15.1214 21.5632 15.2579 21.8927 15.2579 22.2363C15.2846 22.4733 15.375 22.6985 15.5197 22.888C15.7257 23.1842 15.9993 23.4271 16.3177 23.5967C17.0072 23.9188 17.7637 24.0716 18.5241 24.0424C19.1817 24.0638 19.8369 23.9528 20.4507 23.7159C20.8625 23.568 21.2232 23.3049 21.4898 22.958C21.6872 22.6825 21.785 22.3481 21.767 22.0096C21.7806 21.7481 21.7281 21.4874 21.6141 21.2517C21.4964 21.0585 21.3354 20.8953 21.1438 20.7749C20.8366 20.5812 20.5039 20.4312 20.1553 20.3292C19.8716 20.2424 19.5619 20.1582 19.2406 20.0753L19.2173 20.0727C19.2029 20.0679 19.1829 20.0631 19.165 20.0588C19.1587 20.0573 19.1527 20.0559 19.1473 20.0546C18.9374 20.0014 18.7276 19.9483 18.5034 19.8991C17.9308 19.776 17.5343 19.6762 17.2856 19.6011C17.2799 19.5997 17.2751 19.5964 17.2701 19.593C17.266 19.5902 17.2618 19.5873 17.257 19.5856C16.6818 19.4461 16.1161 19.2695 15.5637 19.057C14.8326 18.7637 14.1905 18.285 13.7006 17.6681C13.1932 17.0022 12.9282 16.1832 12.9492 15.3464C12.9494 14.5058 13.2241 13.6882 13.7317 13.0182C14.2617 12.3443 14.9693 11.8319 15.7749 11.5386C16.6656 11.2185 17.6076 11.0648 18.5539 11.0851C19.2984 11.0769 20.0399 11.18 20.7539 11.3909C21.3724 11.5713 21.9519 11.8652 22.4628 12.2577C22.905 12.5932 23.274 13.0156 23.5472 13.4988C23.6292 13.6487 23.6807 13.8134 23.6988 13.9833C23.7169 14.1532 23.7012 14.325 23.6526 14.4888C23.604 14.6526 23.5235 14.8052 23.4158 14.9378C23.308 15.0704 23.175 15.1803 23.0246 15.2613C22.8741 15.3423 22.7092 15.3927 22.5391 15.4097C22.3691 15.4267 22.1974 15.4098 22.0339 15.3602C21.8705 15.3105 21.7184 15.229 21.5865 15.1204C21.4547 15.0117 21.3456 14.878 21.2656 14.7271C21.1552 14.5532 21.0122 14.4023 20.8446 14.2827C20.5853 14.0937 20.2944 13.9524 19.9856 13.8655C19.5199 13.732 19.037 13.6683 18.5526 13.6763C17.9267 13.6579 17.3025 13.7527 16.7103 13.9562C16.3582 14.0761 16.0449 14.2887 15.8034 14.5716C15.6308 14.7925 15.5373 15.0648 15.5378 15.3451C15.5166 15.6065 15.5902 15.8668 15.7451 16.0784C15.9567 16.337 16.2317 16.5365 16.5432 16.6575C17.1476 16.8902 17.7698 17.0739 18.4037 17.2068C18.9348 17.3234 19.365 17.4271 19.7278 17.5281C20.1423 17.6305 20.544 17.738 20.9067 17.8482Z" fill="#01AEF3"/>
<path fill-rule="evenodd" clip-rule="evenodd" d="M12.6667 4.35419C8.07588 4.35419 4.35425 8.07582 4.35425 12.6667C4.35425 14.0018 4.66987 15.2661 5.23114 16.3863C5.07114 17.2339 4.98758 18.1077 4.98758 19C4.98758 26.7389 11.2612 33.0125 19.0001 33.0125C19.8924 33.0125 20.7662 32.929 21.6139 32.769C22.734 33.3302 23.9983 33.6459 25.3334 33.6459C29.9243 33.6459 33.6459 29.9242 33.6459 25.3334C33.6459 23.9982 33.3303 22.734 32.769 21.6138C32.929 20.7662 33.0126 19.8923 33.0126 19C33.0126 11.2611 26.739 4.98752 19.0001 4.98752C18.1078 4.98752 17.2339 5.07108 16.3863 5.23108C15.2662 4.66981 14.0019 4.35419 12.6667 4.35419ZM6.72925 12.6667C6.72925 9.3875 9.38756 6.72919 12.6667 6.72919C13.7417 6.72919 14.7466 7.01377 15.614 7.5109C15.8708 7.65806 16.1732 7.70404 16.4622 7.63981C17.278 7.45842 18.1272 7.36252 19.0001 7.36252C25.4273 7.36252 30.6376 12.5728 30.6376 19C30.6376 19.873 30.5417 20.7221 30.3603 21.538C30.2961 21.8269 30.342 22.1294 30.4892 22.3861C30.9863 23.2535 31.2709 24.2584 31.2709 25.3334C31.2709 28.6125 28.6126 31.2709 25.3334 31.2709C24.2585 31.2709 23.2536 30.9863 22.3862 30.4891C22.1294 30.342 21.8269 30.296 21.538 30.3602C20.7221 30.5416 19.873 30.6375 19.0001 30.6375C12.5729 30.6375 7.36258 25.4272 7.36258 19C7.36258 18.1271 7.45848 17.278 7.63987 16.4621C7.7041 16.1732 7.65812 15.8707 7.51096 15.6139C7.01384 14.7465 6.72925 13.7416 6.72925 12.6667Z" fill="#01AEF3"/>
</svg>