<svg width="38" height="38" viewBox="0 0 38 38" fill="none" xmlns="http://www.w3.org/2000/svg">
<path d="M14.0694 11.3523C14.3591 11.36 14.6802 11.3757 14.9858 12.054C15.1884 12.5055 15.5298 13.3368 15.8078 14.0139C16.0242 14.5408 16.2022 14.9744 16.2468 15.0632C16.3486 15.2658 16.4113 15.4997 16.2781 15.7725C16.2624 15.8047 16.2476 15.8354 16.2333 15.8651C16.1265 16.0867 16.0505 16.2445 15.8709 16.4508C15.797 16.5355 15.7201 16.6285 15.6434 16.7211C15.5086 16.884 15.3747 17.0459 15.2599 17.1602C15.0563 17.3627 14.8447 17.5812 15.0797 17.9865C15.3148 18.3919 16.1372 19.725 17.3512 20.8008C18.6564 21.9628 19.7913 22.4525 20.3651 22.7C20.4764 22.7481 20.5667 22.787 20.6329 22.82C21.0403 23.0226 21.283 22.9914 21.518 22.7186C21.7531 22.4457 22.5362 21.5336 22.8104 21.1282C23.0767 20.7229 23.3508 20.7853 23.7268 20.9256C24.1027 21.0659 26.1078 22.0481 26.5151 22.2508C26.5956 22.2909 26.6709 22.327 26.7407 22.3604C27.024 22.4963 27.2166 22.5887 27.2983 22.7264C27.4001 22.8979 27.4001 23.7087 27.0634 24.6597C26.7188 25.6108 25.0583 26.5229 24.3063 26.5931C24.2351 26.5998 24.1643 26.6084 24.0914 26.6172C23.4023 26.7005 22.5276 26.8064 19.411 25.5796C15.5709 24.0695 13.0359 20.3227 12.5234 19.5652C12.4829 19.5054 12.4551 19.4642 12.4402 19.4443L12.4315 19.4327C12.1983 19.1207 10.7718 17.2119 10.7718 15.2425C10.7718 13.3583 11.7 12.3774 12.1234 11.9299C12.1502 11.9016 12.175 11.8753 12.1974 11.8512C12.5733 11.4459 13.012 11.3445 13.2861 11.3445C13.5603 11.3445 13.8344 11.3445 14.0694 11.3523Z" fill="#79B862"/>
<path fill-rule="evenodd" clip-rule="evenodd" d="M3.45826 33.7748C3.32871 34.245 3.75699 34.679 4.22889 34.5558L11.5238 32.6504C13.8266 33.8977 16.4191 34.5603 19.0588 34.5603H19.0666C27.7527 34.5603 34.8333 27.5207 34.8333 18.8674C34.8333 14.6733 33.1962 10.7286 30.2199 7.76613C27.2437 4.8038 23.2882 3.16669 19.0664 3.16669C10.3804 3.16669 3.29981 10.2063 3.29981 18.8597C3.29882 21.6125 4.02544 24.3172 5.40672 26.7021L3.45826 33.7748ZM7.69642 27.3329C7.86555 26.719 7.78106 26.0629 7.46192 25.5118C6.29001 23.4884 5.67397 21.1937 5.67481 18.8597C5.67481 11.5292 11.6808 5.54169 19.0664 5.54169C22.6604 5.54169 26.0135 6.93025 28.5445 9.44944C31.0726 11.9658 32.4583 15.3047 32.4583 18.8674C32.4583 26.1977 26.4523 32.1853 19.0666 32.1853H19.0588C16.8159 32.1853 14.612 31.622 12.655 30.562C12.1254 30.2751 11.5065 30.2002 10.9236 30.3524L6.54983 31.4949L7.69642 27.3329Z" fill="#79B862"/>
</svg>