<svg width="29" height="29" viewBox="0 0 29 29" fill="none" xmlns="http://www.w3.org/2000/svg">
<g clip-path="url(#clip0_2_1265)">
<path fill-rule="evenodd" clip-rule="evenodd" d="M0.314453 13.9292C0.314453 6.23673 6.5657 0.00195312 14.2785 0.00195312C21.9913 0.00195312 28.2426 6.23673 28.2426 13.9292C28.2426 21.6199 21.9913 27.8565 14.2785 27.8565C6.5657 27.8565 0.314453 21.6199 0.314453 13.9292ZM16.0976 8.52174H18.127V5.41595L15.3314 5.40481C12.2267 5.40481 11.522 7.72231 11.522 9.20325V11.2738H9.72623V14.4733H11.522V23.579H15.296V14.4733H17.7891L18.1186 11.2775H15.2979V9.39359C15.2979 8.68794 15.7661 8.52174 16.0985 8.52174H16.0976Z" fill="white"/>
</g>
<defs>
<clipPath id="clip0_2_1265">
<rect width="27.9281" height="28.7831" fill="white" transform="translate(0.314453)"/>
</clipPath>
</defs>
</svg>
