<svg width="28" height="28" viewBox="0 0 28 28" fill="none" xmlns="http://www.w3.org/2000/svg">
<g clip-path="url(#clip0_2_1267)">
<path fill-rule="evenodd" clip-rule="evenodd" d="M17.6339 22.2544C20.26 22.2544 22.3332 20.1812 22.3332 17.556V10.3688C22.3385 9.75013 22.2206 9.13663 21.9863 8.56405C21.752 7.99146 21.4061 7.47125 20.9687 7.03375C20.5312 6.59624 20.0111 6.25021 19.4385 6.01581C18.866 5.78142 18.2525 5.66336 17.6339 5.66852H10.8613C8.23523 5.66852 6.16199 7.74175 6.16199 10.3688V17.556C6.15696 18.1745 6.27508 18.7878 6.50947 19.3601C6.74386 19.9325 7.08984 20.4525 7.52723 20.8898C7.96462 21.3271 8.48468 21.673 9.0571 21.9073C9.62952 22.1416 10.2428 22.2596 10.8613 22.2544H17.6339ZM0.356934 13.9615C0.356934 6.3596 6.57664 0.139893 14.1785 0.139893C21.9186 0.139893 28.0001 6.2223 28.0001 13.9615C28.0001 21.5633 21.7804 27.783 14.1785 27.783C6.57664 27.783 0.356934 21.5633 0.356934 13.9615ZM18.7387 10.3688C18.1868 10.3688 17.633 9.95413 17.633 9.26305C17.633 8.57197 18.0476 8.1564 18.7387 8.1564C19.4298 8.1564 19.8453 8.57105 19.8453 9.26213C19.8453 9.95321 19.2916 10.3679 18.7387 10.3679V10.3688ZM14.3167 18.2471C11.8279 18.2471 9.89382 16.312 9.89382 13.8242C9.89382 11.3363 11.8279 9.40126 14.3167 9.40126C16.8046 9.40126 18.7387 11.3363 18.7387 13.8242C18.7387 16.312 16.6655 18.2471 14.3167 18.2471ZM17.633 6.91338H10.8622C9.89474 6.91338 9.0636 7.32803 8.37252 7.88089C7.68144 8.43375 7.40685 9.40126 7.40685 10.3688V17.556C7.40685 18.5226 7.8215 19.3528 8.37252 20.0439C8.92538 20.7349 9.89474 21.0114 10.8613 21.0114H17.633C18.6005 21.0114 19.4298 20.5958 20.1209 20.0439C20.8119 19.491 21.0884 18.5226 21.0884 17.556V10.3688C21.0884 9.40126 20.6737 8.57197 20.1209 7.88089C19.5689 7.18981 18.4632 6.91338 17.633 6.91338ZM14.1776 10.9216C12.519 10.9216 11.2751 12.1656 11.2751 13.8242C11.2751 15.4828 12.519 16.7267 14.1776 16.7267C15.8362 16.7267 17.082 15.4828 17.082 13.8242C17.082 12.1656 15.8362 10.9216 14.1776 10.9216Z" fill="white"/>
</g>
<defs>
<clipPath id="clip0_2_1267">
<rect width="27.6431" height="27.6431" fill="white" transform="translate(0.356934 0.139893)"/>
</clipPath>
</defs>
</svg>
