<svg width="29" height="28" viewBox="0 0 29 28" fill="none" xmlns="http://www.w3.org/2000/svg">
<g clip-path="url(#clip0_2_1263)">
<path fill-rule="evenodd" clip-rule="evenodd" d="M17.7429 17.3551C18.539 17.0474 19.2549 16.6032 19.8511 15.9942C20.239 15.5942 20.2436 15.0939 19.9285 14.5797C19.6521 14.1292 19.1729 13.9412 18.6597 14.073C18.4016 14.1449 18.1611 14.2691 17.953 14.4378C15.7996 15.8863 12.8528 15.8458 10.7068 14.3715C10.602 14.298 10.4914 14.2333 10.376 14.178C9.78072 13.896 9.20851 14.0269 8.86665 14.5162C8.46859 15.0856 8.52019 15.6403 9.02422 16.125C9.13203 16.2291 9.25182 16.3213 9.3716 16.4143L9.44532 16.4705C10.5962 17.3708 11.9406 17.7384 13.4305 17.8932L13.3384 17.9937C13.2889 18.0485 13.2382 18.1023 13.1864 18.1549L12.3663 18.9778C11.5462 19.8006 10.7261 20.6235 9.90327 21.4435C9.6766 21.6684 9.5135 21.9227 9.49784 22.2516C9.4748 22.7418 9.77611 23.2265 10.2534 23.4569C10.7012 23.6762 11.1601 23.6071 11.5471 23.2247C12.405 22.3779 13.261 21.5265 14.1013 20.6594C14.3133 20.4447 14.4257 20.3977 14.6653 20.6446C15.2144 21.2205 15.7802 21.7817 16.3441 22.3429C16.6206 22.6174 16.897 22.892 17.1707 23.1685C17.389 23.3896 17.6351 23.5463 17.9502 23.5665C18.4468 23.6015 18.9546 23.2827 19.1803 22.8008C19.3876 22.3567 19.3093 21.8877 18.9334 21.5062C18.2939 20.8603 17.6516 20.2162 17.0094 19.573C16.5421 19.1051 16.0752 18.6367 15.6088 18.1678C15.5465 18.1051 15.4859 18.0405 15.4273 17.9743C15.4018 17.9466 15.3764 17.919 15.3508 17.8914C16.1663 17.7928 16.991 17.6472 17.7429 17.3551ZM19.2374 9.27595C19.2513 6.5531 17.0896 4.34994 14.398 4.34349C13.1068 4.34177 11.8675 4.85221 10.952 5.76286C10.0365 6.67351 9.51955 7.91004 9.51443 9.20131C9.49692 11.867 11.6798 14.0711 14.34 14.0812C17.0269 14.0886 19.2236 11.9343 19.2374 9.27595ZM0.557129 13.9624C0.557129 6.32827 6.7455 0.139893 14.3787 0.139893C22.011 0.139893 28.2003 6.32827 28.2003 13.9615C28.2003 21.5947 22.011 27.783 14.3787 27.783C6.7455 27.783 0.557129 21.5947 0.557129 13.9615V13.9624ZM16.7569 9.20776C16.7596 9.52029 16.7004 9.83026 16.5827 10.1198C16.465 10.4093 16.2912 10.6727 16.0712 10.8947C15.8512 11.1167 15.5895 11.293 15.301 11.4134C15.0126 11.5338 14.7032 11.5959 14.3907 11.5961C14.0783 11.5993 13.7683 11.5407 13.4787 11.4237C13.189 11.3068 12.9252 11.1337 12.7026 10.9145C12.48 10.6953 12.3029 10.4343 12.1815 10.1465C12.06 9.85865 11.9966 9.54965 11.9949 9.23725C11.9909 8.92209 12.0496 8.60929 12.1677 8.31707C12.2858 8.02485 12.4609 7.75906 12.6828 7.53521C12.9047 7.31136 13.1689 7.13392 13.4601 7.01324C13.7512 6.89256 14.0635 6.83105 14.3787 6.8323C14.6909 6.83145 15.0002 6.89226 15.2888 7.01126C15.5774 7.13026 15.8397 7.30509 16.0606 7.52572C16.2815 7.74635 16.4566 8.00843 16.576 8.29693C16.6953 8.58542 16.7565 8.89464 16.756 9.20684L16.7569 9.20776Z" fill="white"/>
</g>
<defs>
<clipPath id="clip0_2_1263">
<rect width="27.6431" height="27.6431" fill="white" transform="translate(0.557129 0.139893)"/>
</clipPath>
</defs>
</svg>
