<svg width="363" height="229" viewBox="0 0 363 229" fill="none" xmlns="http://www.w3.org/2000/svg">
<path d="M203.001 88.8358C201.8 91.5418 202.241 95.0614 198.584 96.2641C196.208 94.4831 194.438 92.013 193.513 89.1895C194.028 88.705 194.417 88.1025 194.648 87.434C194.879 86.7655 194.944 86.0509 194.838 85.3515C194.838 83.7421 194.838 82.1326 194.838 80.3286C197.019 80.3152 199.194 80.5466 201.323 81.0184C201.323 82.6278 201.464 84.0781 201.429 85.5284C201.308 86.1753 201.395 86.8439 201.678 87.4381C201.96 88.0324 202.423 88.5217 203.001 88.8358Z" fill="#ED8B6E"/>
<path d="M242.88 131.602C242.381 132.225 242.141 133.017 242.208 133.812C242.208 135.74 239.717 137.35 237.721 137.35C236.802 137.323 235.898 137.113 235.061 136.734C234.224 136.354 233.47 135.812 232.844 135.139C229.734 132.15 226.572 129.214 223.48 126.207C222.58 125.37 221.817 124.397 221.218 123.324C218.691 118.39 216.271 113.402 213.744 108.291C215.562 107.357 217.476 106.622 219.451 106.098C220.511 108.485 221.642 110.679 222.49 112.96C224.378 118.102 227.349 122.776 231.201 126.667C232.385 127.87 233.445 129.214 234.523 130.523C235.141 131.283 235.848 131.619 236.713 131.053C238.869 129.674 240.777 130.558 242.88 131.602Z" fill="#FFA787"/>
<path d="M145.471 134.255C145.807 133.123 146.779 132.875 147.786 132.681L150.313 132.15C150.322 131.991 150.322 131.832 150.313 131.672L148.776 131.018C148.952 130.753 149.041 130.523 149.2 130.417C149.765 130.028 150.419 129.745 150.966 129.302C151.333 128.958 151.788 128.721 152.28 128.618C152.773 128.515 153.284 128.55 153.758 128.719C154.326 128.946 154.956 128.959 155.532 128.753C156.108 128.548 156.589 128.14 156.885 127.605C162.628 120.654 168.423 113.774 174.201 106.858C174.59 106.398 174.996 105.956 175.508 105.39L180.615 107.566C177.752 111.368 175.986 115.542 172.452 118.638C167.292 123.254 162.151 127.905 157.115 132.645C155.019 134.476 152.421 135.635 149.659 135.97C148.703 135.944 147.769 135.683 146.938 135.21C146.42 134.939 145.929 134.619 145.471 134.255Z" fill="#FFA787"/>
<path d="M194.185 179.585C195.209 194.053 193.831 208.308 192.983 222.811L188.389 223.182C187.735 208.432 187.082 193.947 186.41 179.143L194.185 179.585Z" fill="#FFA787"/>
<path d="M209.062 223.112L204.609 222.723C203.62 208.326 202.418 194.053 203.39 179.426L211.023 179.055C210.563 193.734 209.892 208.343 209.062 223.112Z" fill="#FFA787"/>
<path d="M182.735 179.921C184.007 165.012 185.244 150.597 186.499 136.006H209.362C211.323 150.42 212.472 164.958 213.762 179.585C209.132 180.717 204.68 180.293 199.998 180.328C199.397 175.677 198.814 171.149 198.231 166.621H197.754C197.33 171.131 196.906 175.641 196.464 180.434C191.888 180.098 187.417 180.47 182.735 179.921Z" fill="#E8E9EE"/>
<path d="M219.062 226.773L207.736 227.144C206.977 227.144 206.199 227.144 205.439 227.144C203.673 227.144 203.09 226.313 203.531 224.597C203.867 223.461 204.268 222.345 204.733 221.255H208.708C209.009 221.255 209.397 221.255 209.592 221.396C211.942 223.501 215.104 223.554 217.808 224.757C218.567 225.181 219.522 225.269 219.062 226.773Z" fill="#7F43E3"/>
<path d="M193.195 221.202C193.725 222.581 194.255 223.713 194.573 224.88C194.962 226.313 194.344 227.162 192.806 227.162C188.495 227.162 184.184 227.056 179.873 226.932C179.466 226.932 179.078 226.437 178.689 226.171C178.989 225.8 179.237 225.252 179.643 225.093C181.286 224.456 183 223.978 184.643 223.324C185.785 222.716 186.965 222.184 188.177 221.732C189.837 221.452 191.513 221.274 193.195 221.202Z" fill="#7F43E3"/>
<path d="M221.924 106.505C219.628 109.352 216.182 110.449 213.09 112.412L210.192 108.609C210.033 109.9 209.927 110.661 209.874 111.439C209.415 119.285 209.415 127.151 209.874 134.998C210.016 138.11 209.68 138.535 206.588 139.172C200.842 140.365 194.912 140.365 189.166 139.172C188.71 139.083 188.261 138.959 187.824 138.8C186.057 138.216 185.739 137.81 185.756 135.97C185.756 133.742 185.756 131.513 186.021 129.285C186.328 122.273 186.192 115.25 185.615 108.255C185.547 107.818 185.447 107.387 185.315 106.964L180.226 111.704C176.804 110.443 173.913 108.054 172.028 104.93C172.752 104.011 173.494 103.056 174.272 102.118C177.152 98.581 180.049 95.0437 182.912 91.5064C183.767 90.4228 184.973 89.6721 186.322 89.384C188.336 88.9418 190.35 88.3936 192.347 87.8276C192.778 87.6516 193.262 87.6532 193.692 87.832C194.122 88.0109 194.464 88.3525 194.644 88.7827C195.669 90.4098 196.799 91.9662 198.072 93.8233C199.467 91.6479 200.722 89.667 202.065 87.5269C204.651 88.0242 207.192 88.734 209.662 89.6493C211.545 90.507 213.171 91.8422 214.38 93.5226C217.083 97.5375 219.38 101.765 221.924 106.009C221.95 106.173 221.95 106.34 221.924 106.505Z" fill="#7F43E3"/>
<path d="M187.682 67.5235C188.265 65.5603 188.672 63.7563 189.326 62.0584C190.547 58.5442 192.977 55.5792 196.181 53.6927C198.05 52.5519 200.252 52.0827 202.423 52.3624C204.594 52.6421 206.606 53.6541 208.125 55.2314C211.249 58.5272 212.939 62.9288 212.825 67.4704C212.825 68.2133 212.825 68.9384 212.825 69.6636C215.634 71.7152 215.422 74.5097 212.26 76.0838C211.353 76.5368 210.62 77.2765 210.175 78.1885C208.806 80.9024 206.625 83.1217 203.938 84.5379C202.112 85.5277 200.015 85.8989 197.96 85.596C195.906 85.2931 194.005 84.3324 192.541 82.8577C190.67 81.068 189.325 78.7982 188.654 76.296C188.54 75.802 188.324 75.3375 188.02 74.9323C187.716 74.5272 187.33 74.1904 186.887 73.9437C186.055 73.3818 185.39 72.6059 184.961 71.6975C183.778 69.2568 184.979 67.5412 187.682 67.5235Z" fill="#FFA787"/>
<path d="M243.463 124.651C241.877 123.087 240.696 121.161 240.022 119.037C239.347 116.914 239.2 114.658 239.593 112.465C240.055 108.65 241.457 105.009 243.675 101.872C245.893 98.7349 248.856 96.1998 252.297 94.4954C254.095 93.6128 256.032 93.0502 258.022 92.8329C260.873 92.4273 263.771 93.1256 266.125 94.7853C268.479 96.445 270.112 98.9411 270.691 101.765C271.43 104.895 271.295 108.168 270.302 111.227C268.812 116.174 265.777 120.513 261.644 123.607C256.856 127.145 251.626 128.63 245.53 126.207C245.141 126.738 244.753 127.357 244.311 127.976C240.247 132.911 237.508 138.588 234.169 144.053C232.597 146.564 231.077 149.111 229.487 151.623C228.427 153.285 227.384 153.391 225.847 152.1C223.921 150.473 223.815 149.801 225.352 147.856C228.533 143.858 231.589 139.738 235.017 135.953C238.18 132.398 240.477 128.294 243.463 124.651ZM244.523 103.922C243.922 105.107 243.463 106.08 242.986 107.035L245.601 108.839L247.58 106.045L244.523 103.922ZM245.265 102.72L248.428 104.966C249.082 104.046 249.647 103.197 250.354 102.26L247.403 100.491L245.265 102.72ZM263.658 106.487C263.058 107.354 262.528 108.096 261.891 108.928L264.33 110.608C264.948 109.723 265.496 108.945 266.097 108.167L263.658 106.487ZM262.722 115.153L265.478 117.134C266.044 116.108 266.521 115.242 267.015 114.304L264.559 112.536L262.722 115.153ZM261.909 116.338L259.93 119.133L262.192 120.76L264.577 118.231L261.909 116.338ZM255.248 115.79L257.262 113.084L255.089 111.545L253.163 114.251L255.248 115.79ZM260.796 115.56L258.446 113.898L256.52 116.604L258.87 118.372L260.796 115.56ZM261.132 110.095L259.365 112.642L261.697 114.304L263.464 111.74L261.132 110.095ZM266.856 107.071C267.404 106.275 267.934 105.532 268.5 104.736C267.652 104.135 266.874 103.569 266.097 102.967L264.453 105.302L266.856 107.071ZM260.019 109.158L257.722 107.725L255.955 110.254L258.163 111.828L260.019 109.158ZM254.718 109.476L256.609 106.788L254.453 105.408L252.686 107.973L254.718 109.476ZM257.386 105.726L259.153 103.162L256.909 101.765L255.283 104.311L257.386 105.726ZM258.552 106.469L260.743 108.026L262.404 105.656L260.231 104.117C259.648 104.984 259.153 105.673 258.57 106.469H258.552ZM245.99 124.156L248.516 125.075C249.117 124.209 249.612 123.537 250.089 122.865L247.968 121.361L245.99 124.156ZM251.043 101.163C251.714 100.244 252.244 99.3946 252.81 98.7579C250.937 96.9892 250.23 97.1661 248.834 99.5538L251.043 101.163ZM265.567 96.5824L263.676 99.2531L265.955 100.88L267.404 98.8109L265.567 96.5824ZM251.838 113.367L253.834 110.608L251.803 109.175L249.841 111.952L251.838 113.367ZM261.061 102.861L263.27 104.418L264.931 102.101L262.704 100.527L261.061 102.861ZM261.732 94.7253L260.319 96.9008L262.563 98.4926C263.422 97.7918 264.04 96.8393 264.33 95.7688L261.732 94.7253ZM259.524 98.2626L257.757 100.65L259.895 102.171L261.662 99.7837L259.524 98.2626ZM244.894 123.342L246.855 120.583L244.806 119.133L243.233 121.22C243.41 121.538 243.534 121.803 243.693 122.033C243.852 122.263 244.258 122.688 244.894 123.342ZM267.493 112.854C269.065 110.289 269.012 109.883 267.139 109.158C266.609 109.9 266.097 110.643 265.514 111.439L267.493 112.854ZM250.866 117.417L253.075 118.991C253.587 118.248 254.011 117.682 254.435 117.063L252.227 115.489C251.661 116.179 251.29 116.71 250.778 117.417H250.866ZM254.223 119.876L256.538 121.52L257.969 119.486L255.495 117.859L254.223 119.876ZM248.923 107.035L246.997 109.741L248.764 110.997L250.689 108.273L248.923 107.035ZM255.813 122.617L253.41 120.848L252.28 122.617L254.577 124.262L255.813 122.617ZM255.919 100.916L254.153 99.6776L252.386 102.065L254.153 103.303L255.919 100.916ZM251.379 107.071L253.145 104.541L251.379 103.286L249.612 105.815L251.379 107.071ZM249.877 118.443L248.852 120.212L251.06 121.786L252.191 120.017L249.877 118.443ZM249.029 113.137L247.58 115.189L249.576 116.604L250.99 114.605C250.774 114.372 250.544 114.154 250.301 113.951C249.947 113.721 249.559 113.508 249.029 113.172V113.137ZM242.597 108.609C241.431 111.121 241.466 111.227 243.445 111.97L244.753 110.201L242.597 108.609ZM254.718 98.5279L256.591 99.7483L258.269 97.396L256.502 96.1049L254.718 98.5279ZM247.58 119.451L248.799 117.682L246.661 116.232L245.512 118.001L247.58 119.451ZM245.813 110.926L244.505 113.031L246.272 114.251L247.703 112.235L245.813 110.926ZM245.477 115.383L243.71 114.057L242.456 115.914L244.223 117.01L245.477 115.383ZM259.029 120.229C258.481 121.078 258.057 121.733 257.651 122.387C259.259 123.271 259.259 123.271 260.831 121.52L259.029 120.229ZM250.195 125.535L253.605 125.323L251.449 123.784L250.195 125.535ZM267.121 101.57C268.04 102.507 268.04 102.507 269.153 102.614L267.987 99.9959C267.493 100.792 267.227 101.199 266.998 101.588L267.121 101.57ZM255.054 95.8573L254.789 95.4859L252.35 96.6355L253.781 97.6613L255.054 95.8573ZM242.367 119.858L243.534 118.089L241.36 116.78L242.367 119.858ZM260.407 94.5662L257.227 94.8138L259.223 96.2287C259.577 95.7512 259.842 95.3621 260.407 94.5662ZM269.118 106.681L268.606 106.522C268.424 107 268.276 107.491 268.164 107.99C268.164 107.99 268.553 108.238 268.941 108.45L269.118 106.681ZM241.484 112.483C241.484 113.332 241.484 113.862 241.484 114.853C242.297 113.827 242.88 113.261 241.484 112.483Z" fill="#636B76"/>
<path d="M188.795 69.2214C188.337 68.8218 187.971 68.3266 187.724 67.7705C187.477 67.2145 187.354 66.611 187.364 66.0025C187.037 63.5209 187.145 61.0011 187.682 58.5565C187.857 57.503 188.266 56.502 188.877 55.6268C189.488 54.7515 190.288 54.0243 191.216 53.4981C191.655 53.2474 192.016 52.8801 192.259 52.437C192.685 51.7062 193.256 51.0704 193.936 50.5685C194.617 50.0667 195.393 49.7094 196.216 49.5187C200.757 48.2983 205.051 48.4044 208.903 51.588C210.612 52.8609 212.499 53.874 214.504 54.5947C215.615 54.7854 216.75 54.7854 217.861 54.5947C217.755 54.5063 217.984 54.5947 217.967 54.6831C217.596 56.7348 218.921 59.2109 217.26 60.8203C215.719 62.5264 214.793 64.6991 214.627 66.9929C214.216 68.6905 213.624 70.3389 212.86 71.9098C212.613 72.5111 212.242 73.2186 211.412 72.9533C210.581 72.688 210.846 71.9275 210.899 71.2908C211.058 69.3099 211.217 67.329 211.323 65.3481C211.405 64.544 211.26 63.733 210.904 63.0075C210.547 62.2821 209.995 61.6713 209.309 61.2448C207.984 60.3605 206.941 59.0517 205.775 58.0436C204.754 57.267 203.652 56.6029 202.489 56.0627C201.517 55.536 200.413 55.3041 199.312 55.3952C198.21 55.4862 197.159 55.8964 196.287 56.5756C194.347 57.6146 192.738 59.177 191.64 61.0856C190.744 63.325 189.966 65.6097 189.308 67.9303C189.167 68.3017 189.008 68.6908 188.795 69.2214Z" fill="#8F594F"/>
<path d="M153.016 131C153.016 131.743 152.796 132.468 152.384 133.085C151.971 133.702 151.385 134.183 150.7 134.466C150.014 134.749 149.26 134.823 148.533 134.677C147.806 134.53 147.139 134.172 146.615 133.645C146.092 133.119 145.737 132.449 145.594 131.721C145.452 130.992 145.529 130.238 145.815 129.553C146.101 128.868 146.584 128.284 147.202 127.874C147.82 127.464 148.546 127.247 149.288 127.251C150.278 127.256 151.227 127.653 151.925 128.355C152.624 129.058 153.016 130.009 153.016 131Z" fill="#CDD7D8"/>
<path d="M207.03 73.8729C206.707 73.8417 206.401 73.7144 206.151 73.5077C205.901 73.3009 205.718 73.0239 205.627 72.7125C205.535 72.4011 205.539 72.0693 205.637 71.76C205.736 71.4506 205.924 71.1778 206.179 70.9765C206.433 70.7753 206.742 70.6549 207.065 70.6307C207.389 70.6065 207.712 70.6798 207.993 70.841C208.275 71.0022 208.502 71.244 208.645 71.5353C208.788 71.8266 208.841 72.1541 208.797 72.4757C208.772 72.6837 208.708 72.8849 208.606 73.0677C208.504 73.2506 208.367 73.4115 208.203 73.5413C208.039 73.6711 207.851 73.7672 207.649 73.8241C207.448 73.881 207.237 73.8976 207.03 73.8729Z" fill="#2C3238"/>
<path d="M195.421 70.2119C195.424 70.5493 195.326 70.8798 195.138 71.1603C194.951 71.4408 194.683 71.6583 194.371 71.7845C194.058 71.9107 193.715 71.9398 193.385 71.8679C193.056 71.796 192.756 71.6265 192.524 71.3814C192.292 71.1364 192.14 70.8272 192.086 70.494C192.032 70.1609 192.08 69.8193 192.223 69.5137C192.366 69.2081 192.597 68.9527 192.887 68.7807C193.177 68.6087 193.512 68.5281 193.849 68.5494C194.265 68.5949 194.652 68.787 194.94 69.0916C195.228 69.3961 195.399 69.7932 195.421 70.2119Z" fill="#2C3238"/>
<path d="M205.068 69.2745C206.835 67.3289 209.044 67.6473 209.998 69.8935L205.068 69.2745Z" fill="#8F594F"/>
<path d="M201.711 79.9572C201.24 80.2422 200.716 80.4301 200.171 80.5096C199.626 80.5892 199.07 80.5589 198.537 80.4205C198.003 80.2821 197.503 80.0384 197.065 79.7037C196.627 79.369 196.261 78.95 195.987 78.4715L201.711 79.9572Z" fill="#D3745E"/>
<path d="M191.658 66.8515C193.813 65.0828 195.439 65.242 195.969 67.1875L191.658 66.8515Z" fill="#8F594F"/>
<path d="M200.174 75.5178C199.962 76.0484 199.768 76.579 199.485 77.2864C198.761 76.1014 198.761 76.1014 200.174 75.5178Z" fill="#D3745E"/>
<path d="M300.041 168.298H308.999C309.738 171.553 310.287 174.849 310.642 178.168C311.26 192.104 311.649 206.041 312.126 219.978C312.126 220.421 312.126 220.88 312.038 221.553H306.984C306.543 219.377 306.083 217.078 305.624 214.761C303.981 206.537 302.267 198.312 300.765 190C299.975 185.991 299.473 181.93 299.263 177.849C299.309 174.652 299.569 171.461 300.041 168.298Z" fill="#FFA787"/>
<path d="M326.756 168.21C329.071 166.919 330.113 166.813 335.926 167.272C336.673 169.06 337.31 170.891 337.834 172.755C341.05 187.506 345.715 201.85 349.584 216.423C350.379 219.465 350.22 219.748 347.163 219.854C346.471 219.854 345.78 219.8 345.096 219.695C340.767 209.702 336.262 199.886 332.269 189.929C329.318 183.019 327.458 175.692 326.756 168.21Z" fill="#FFA787"/>
<path d="M299.581 118.299L330.891 119.519C332.746 135.738 337.287 151.213 340.361 166.954C334.952 169.156 329.079 169.971 323.275 169.324C321.391 160.658 319.494 151.991 317.586 143.325H317.215C317.093 143.754 317.004 144.191 316.95 144.634C316.608 152.263 316.284 159.891 315.978 167.52C315.854 170.12 315.801 170.102 313.169 170.315C308.592 170.529 304.004 170.286 299.475 169.589C299.205 167.991 299.016 166.379 298.91 164.761C298.733 155.511 298.557 146.261 298.539 137.011C298.539 132.076 298.751 127.142 298.945 122.207C299.08 120.893 299.293 119.588 299.581 118.299Z" fill="#7F43E3"/>
<path d="M302.921 38.5149C301.302 36.8572 300.112 34.8295 299.453 32.6075C298.794 30.3854 298.687 28.0361 299.14 25.763C299.699 21.8083 301.235 18.0557 303.607 14.8442C305.979 11.6326 309.114 9.06352 312.727 7.369C314.614 6.48599 316.641 5.94124 318.717 5.75952C321.698 5.39083 324.706 6.17883 327.125 7.96165C329.543 9.74447 331.188 12.3867 331.721 15.3456C332.417 18.6054 332.21 21.9938 331.12 25.1439C329.458 30.248 326.215 34.6896 321.862 37.8252C316.791 41.4686 311.26 42.8304 305.041 40.1775C304.635 40.7257 304.228 41.3625 303.734 41.9461C299.422 46.9514 296.507 52.8941 292.85 58.4299C291.206 60.9945 289.528 63.6121 287.832 66.1766C286.701 67.9453 285.605 67.9453 284.033 66.5834C282.072 64.8148 281.966 64.1604 283.609 62.1795C287.001 58.0762 290.27 53.8668 293.927 50.0112C297.284 46.4562 299.74 42.2998 302.921 38.5149ZM304.476 16.9905L302.815 20.1917L305.483 22.1903C306.243 21.1468 306.896 20.2625 307.603 19.3251L304.476 16.9905ZM305.341 15.7701L308.557 18.1578L310.642 15.381L307.532 13.4178L305.341 15.7701ZM324.371 20.0679L322.604 22.5617L324.989 24.3304L326.844 21.8189L324.371 20.0679ZM323.205 29.0703L326.032 31.175C326.632 30.1315 327.145 29.2295 327.675 28.2744C326.791 27.6024 326.014 27.0364 325.166 26.5058L323.205 29.0703ZM322.339 30.273L320.219 33.1382L322.533 34.9069L325.06 32.3423L322.339 30.273ZM315.413 29.5656L317.48 26.7888L315.254 25.1439C314.529 26.1344 313.893 26.9126 313.204 27.9207L315.413 29.5656ZM321.155 29.4418L318.734 27.6731L316.667 30.4499L319.088 32.2185L321.155 29.4418ZM321.614 23.7644L319.671 26.382L322.038 28.1506L323.982 25.5154L321.614 23.7644ZM327.675 20.74L329.442 18.3523L326.986 16.5837L325.219 18.9713L327.675 20.74ZM320.519 22.7739L318.116 21.2883L316.19 23.8705L318.452 25.6392L320.519 22.7739ZM314.971 23.0569L317.003 20.3155L314.794 18.8122L312.833 21.4651L314.971 23.0569ZM317.833 19.219L319.777 16.6014L317.409 14.9211L315.642 17.5387L317.833 19.219ZM319.035 20.0325L321.261 21.6774L323.028 19.272L320.802 17.6095L319.035 20.0325ZM305.589 38.1435L308.186 39.1516L309.865 36.8878L307.709 35.2783L305.589 38.1435ZM311.331 14.3552L313.098 11.8967C311.207 10.022 310.465 10.1281 308.964 12.6219L311.331 14.3552ZM326.544 9.89817L324.494 12.6219L326.827 14.3905L328.399 12.2858C327.799 11.5076 327.198 10.7648 326.544 9.89817ZM311.914 27.0364L314.034 24.2065L311.967 22.6678L309.847 25.5154L311.914 27.0364ZM321.72 16.3184L323.982 18.087L325.749 15.6993L323.487 14.0191L321.72 16.3184ZM322.586 7.8819L321.067 10.1104L323.364 11.8791C324.229 11.1549 324.847 10.1778 325.131 9.08459L322.586 7.8819ZM320.236 11.4192L318.469 13.8599L320.643 15.4871L322.41 13.0464L320.236 11.4192ZM304.352 37.2061L306.455 34.3763L304.352 32.8199L302.762 34.9423C302.905 35.2396 303.064 35.5289 303.239 35.8089C303.575 36.1626 303.804 36.4987 304.352 37.2061ZM328.064 26.7711C329.83 24.1358 329.707 23.7113 327.781 22.9154L326.014 25.2677L328.064 26.7711ZM310.642 31.1573L312.904 32.926L314.353 30.9628L312.109 29.1941C311.632 29.8839 311.243 30.4322 310.642 31.1573ZM314.176 33.7749L316.543 35.5436L318.081 33.4743L315.713 31.7056C315.148 32.4131 314.706 32.9967 314.176 33.7749ZM308.875 20.3155L306.773 23.0569L308.539 24.4011C309.299 23.393 309.918 22.6325 310.607 21.6066L308.875 20.3155ZM315.695 36.6755C314.794 35.9858 314.087 35.4729 313.239 34.9069L312.038 36.6755C312.868 37.3122 313.575 37.8252 314.388 38.4442L315.695 36.6755ZM316.278 14.1076L314.512 12.7988L312.745 15.2395L314.512 16.5483C315.077 15.6817 315.642 14.9388 316.243 14.1076H316.278ZM311.579 20.4216L313.504 17.8394L311.738 16.5129L309.812 19.0951L311.579 20.4216ZM309.812 32.2185L308.698 34.1287L310.96 35.8089C311.402 35.1191 311.755 34.5885 312.162 34.0402L309.812 32.2185ZM309.034 26.718L307.479 28.805L309.529 30.3261L310.978 28.3629C310.756 28.1139 310.52 27.8777 310.271 27.6554C309.9 27.3017 309.511 27.0718 308.964 26.718H309.034ZM302.373 21.8189C301.101 24.4188 301.136 24.5249 303.186 25.3562C303.628 24.7725 304.069 24.1889 304.582 23.4814L302.373 21.8189ZM315.183 11.6138L317.109 12.9049L318.876 10.5172L317.021 9.11996L315.183 11.6138ZM307.32 33.209L308.628 31.4403L306.455 29.8309C305.995 30.5029 305.642 31.0335 305.235 31.5995L307.32 33.209ZM305.695 24.3657L304.299 26.5058L306.066 27.8323L307.585 25.763L305.695 24.3657ZM305.341 28.9288L303.433 27.5139L302.143 29.4948L304.034 30.6798L305.341 28.9288ZM319.229 34.2348L317.71 36.4633C319.37 37.4361 319.37 37.4361 321.049 35.632L319.229 34.2348ZM309.847 39.5407L313.381 39.3816L311.172 37.7367L309.847 39.5407ZM327.887 15.0449C328.823 16.0354 328.823 16.0354 329.972 16.1946C329.654 15.3102 329.353 14.532 328.947 13.4178L327.887 15.0449ZM315.519 8.85466L315.254 8.46556L312.692 9.61518C313.292 10.075 313.681 10.358 314.158 10.6941L315.519 8.85466ZM301.896 33.5096L303.15 31.6526L300.942 30.273C301.331 31.5818 301.56 32.3423 301.896 33.5096ZM321.243 7.61661L317.922 7.79347L319.989 9.31451L321.243 7.61661ZM330.078 20.3863L329.53 20.2094C329.371 20.7223 329.159 21.2175 329.053 21.7304C329.053 21.8189 329.459 21.9957 329.848 22.2433C329.848 21.4828 329.919 20.9345 330.078 20.3863ZM301.119 25.8337C301.119 26.7003 301.119 27.2663 301.119 28.2921C301.949 27.2486 302.567 26.5942 301.119 25.8337Z" fill="#656D78"/>
<path d="M314.052 59.9155L307.303 49.5866C309.246 48.7907 309.405 47.4288 309.07 45.7486C308.87 44.1344 308.752 42.511 308.716 40.8848C309.741 40.2481 310.837 40.6549 311.879 40.6195C313.77 40.6195 315.695 40.6195 317.604 40.5311C318.611 40.5311 318.946 41.0971 319.017 41.9637C319.176 43.5732 319.229 45.2003 319.494 46.7921C319.775 48.0806 320.153 49.3458 320.625 50.577C321.243 55.4585 317.215 57.1033 314.052 59.9155Z" fill="#ED8B6E"/>
<path d="M289.687 72.6851L298.521 78.2386C298.08 78.7162 297.779 79.1053 297.408 79.4413C294.157 82.3773 290.888 85.2778 287.655 88.2846C286.886 89.0572 285.93 89.6167 284.88 89.9082C283.83 90.1996 282.722 90.213 281.665 89.9471C280.499 90.1239 279.351 88.4614 279.015 87.7716C278.679 87.0819 279.333 85.5608 279.739 84.818C281.506 81.8113 284.068 79.512 285.906 76.6645C287.027 75.212 288.294 73.8785 289.687 72.6851Z" fill="#ED8B6E"/>
<path d="M343.541 76.1164C340.821 78.1446 337.852 79.8149 334.707 81.0863C334.121 81.3928 333.462 81.5288 332.803 81.4788C332.144 81.4288 331.512 81.1948 330.979 80.8033C330.06 87.6303 329.618 94.2981 329.371 101.001C329.124 107.704 330.908 114.266 331.226 121.235C329.565 121.5 327.869 121.889 326.155 122.031C322.003 122.331 317.851 122.738 313.787 122.72C309.087 122.72 304.405 122.26 299.652 121.995C298.68 121.995 298.398 121.376 298.398 120.439C298.398 117.131 298.398 113.824 298.256 110.517C298.056 105.281 297.826 100.046 297.567 94.811C297.39 91.5037 297.125 88.1963 296.878 84.8889C296.754 83.5094 296.525 82.1475 296.33 80.6265C291.56 80.5734 287.673 78.2034 283.149 76.8946C283.715 75.4089 284.192 74.2063 284.634 72.9859C286.241 68.582 287.743 64.1426 289.475 59.7564C290.253 58.0966 291.169 56.5052 292.214 54.9987C292.484 54.6334 292.851 54.3514 293.274 54.1851L306.879 49.0207C307.108 49.0014 307.338 49.0014 307.568 49.0207L313.681 57.1565C315.854 54.4328 317.869 51.8505 319.918 49.3567C320.456 49.4278 320.988 49.5402 321.508 49.6928C325.131 50.9662 328.753 52.2927 332.375 53.5307C332.829 53.6444 333.249 53.8638 333.603 54.1712C333.956 54.4785 334.231 54.8651 334.407 55.2994C337.393 62.0556 340.432 68.8119 343.435 75.5681C343.485 75.748 343.52 75.9312 343.541 76.1164Z" fill="#CDD7D8"/>
<path d="M297.92 25.2678C298.168 21.9781 296.825 18.9183 297.267 15.9293C297.744 12.8267 299.127 9.93453 301.242 7.61667C302.725 5.87261 304.745 4.67215 306.984 4.20459C309.224 3.73704 311.555 4.029 313.61 5.03444C317.056 6.66866 319.864 9.39884 321.597 12.7988C322.657 14.762 323.47 16.8667 324.494 19.1483C325.147 19.1632 325.78 19.3757 326.31 19.7577C326.84 20.1397 327.242 20.6733 327.463 21.2883C327.932 22.2288 328.203 23.2561 328.258 24.306C328.312 25.356 328.15 26.4059 327.781 27.3902C327.566 28.0025 327.131 28.5131 326.562 28.8228C325.219 29.2473 325.148 30.22 324.989 31.3343C324.632 34.9461 323.46 38.4295 321.561 41.5217C321.039 42.2935 320.319 42.9104 319.476 43.308C316.607 44.545 313.464 45.0084 310.359 44.6522C309.454 44.5699 308.574 44.3087 307.77 43.8837C306.967 43.4586 306.255 42.8782 305.677 42.1761C304.105 40.2836 302.55 38.3912 301.119 36.3926C300.836 35.8618 300.439 35.4007 299.956 35.0428C299.473 34.6849 298.917 34.4391 298.327 34.3233C297.574 34.1516 296.868 33.8173 296.257 33.3438C295.647 32.8702 295.147 32.2689 294.793 31.5819C293.415 29.0527 294.404 25.3562 297.92 25.2678Z" fill="#FFA787"/>
<path d="M302.991 228.079C302.855 227.725 302.82 227.34 302.892 226.968C302.964 226.596 303.139 226.251 303.398 225.974C304.387 224.524 305.359 223.038 306.207 221.499C306.378 221.078 306.671 220.717 307.049 220.465C307.427 220.212 307.873 220.08 308.327 220.085C309.547 220.085 310.748 219.961 312.109 219.89C313.514 222.377 313.895 225.315 313.169 228.079H302.991Z" fill="#CDD7D8"/>
<path d="M343.365 76.1163C343.718 76.753 344.001 77.2129 344.213 77.6904C346.439 82.4068 348.659 87.1527 350.874 91.928C351.231 92.6933 351.526 93.4858 351.757 94.298C351.966 94.7137 352.086 95.1684 352.11 95.6332C352.133 96.0979 352.059 96.5624 351.893 96.9969C351.727 97.4314 351.471 97.8264 351.144 98.1566C350.816 98.4867 350.423 98.7448 349.99 98.9142C345.061 101.939 340.114 104.928 335.219 107.97C334.129 108.685 333.095 109.483 332.127 110.357C330.802 111.542 330.749 111.578 329.23 110.357C328.859 110.074 328.505 109.791 328.116 109.526C327.357 109.013 326.509 108.695 325.802 109.438C324.406 110.923 323.134 109.243 321.773 109.332C321.508 109.332 321.173 108.164 320.749 107.28L324.123 104.485C324.035 104.309 323.947 104.132 323.841 103.955L321.985 103.707C322.692 102.717 325.519 101.143 326.314 101.514C327.904 102.394 329.444 103.362 330.926 104.415L342.605 93.0069C339.654 89.1866 336.792 85.5078 333.77 81.5814L343.365 76.1163Z" fill="#FFA787"/>
<path d="M293.468 48.5962L295.041 51.5675L296.807 49.4275C297.666 52.2704 297.666 55.3039 296.807 58.1469C296.492 58.9221 295.9 59.5523 295.147 59.9156C294.442 60.2242 293.833 60.7142 293.38 61.3356C292.926 61.957 292.646 62.6876 292.567 63.4529C291.46 69.3484 290.282 75.2439 289.033 81.1394C288.733 82.6427 288.291 84.1284 287.885 85.614C286.984 88.886 282.142 89.8234 280.234 89.1513C279.879 89.0114 279.573 88.7719 279.351 88.4616C277.071 85.1188 276.17 81.7584 278.114 77.9912C280.958 72.5791 283.662 66.9902 286.542 61.5604C287.093 60.8031 287.434 59.9133 287.53 58.9813C287.626 58.0494 287.474 57.1085 287.09 56.2544C286.901 55.8134 286.747 55.358 286.63 54.8926C286.347 54.0574 286.385 53.1463 286.738 52.3381C287.092 51.5299 287.733 50.8829 288.538 50.524C289.999 49.4865 291.692 48.8244 293.468 48.5962Z" fill="#FFA787"/>
<path d="M316.208 8.23555C312.674 9.01376 309.37 9.79197 306.101 10.3756C303.957 10.7946 302.032 11.9677 300.677 13.683C299.98 14.5971 299.607 15.717 299.617 16.8666C299.617 19.891 299.864 22.933 300.023 25.9574C300.023 26.2935 300.023 26.6472 300.023 27.1424C299.544 27.0301 299.101 26.7997 298.734 26.4723C298.367 26.1449 298.087 25.7308 297.92 25.2677C296.701 22.7385 295.341 20.2447 294.387 17.6094C293.676 16.0766 293.464 14.3592 293.781 12.6994C294.098 11.0397 294.928 9.52155 296.154 8.35936C300.176 4.18806 305.382 1.35424 311.066 0.241255C312.151 -0.065601 313.297 -0.0799905 314.39 0.199544C315.482 0.479079 316.481 1.04261 317.285 1.83304C317.905 2.32333 318.613 2.68963 319.37 2.91192C320.311 3.29998 321.151 3.89869 321.825 4.6621C322.499 5.42552 322.989 6.33333 323.257 7.31586C323.894 9.31443 324.477 11.3307 325.113 13.3293C325.617 15.8238 325.44 18.4084 324.6 20.8107C324.569 20.9549 324.494 21.0862 324.386 21.1868C324.278 21.2875 324.142 21.3528 323.996 21.3739C323.85 21.3951 323.701 21.3711 323.569 21.3052C323.437 21.2393 323.328 21.1347 323.257 21.0052C323.052 20.6245 322.892 20.2208 322.78 19.8025C322.018 17.2344 320.777 14.8339 319.123 12.7279C318.06 11.2921 317.086 9.79177 316.208 8.23555Z" fill="#A56450"/>
<path d="M352.765 217.113L359.638 216.282C359.938 216.282 360.239 216.14 360.539 216.123C361.263 216.123 362.111 216.123 362.165 217.007C362.189 217.333 362.142 217.661 362.026 217.966C361.91 218.272 361.728 218.548 361.493 218.776C360.332 219.535 359.094 220.169 357.8 220.668C354.867 221.853 351.917 222.932 348.966 224.046C348.528 224.196 348.079 224.308 347.623 224.382C347.47 224.4 347.316 224.4 347.164 224.382C345.573 224.382 345.096 223.887 344.778 221.924C344.319 218.882 344.513 218.104 346.174 217.732C348.33 217.255 350.521 216.989 352.694 216.653C352.728 216.805 352.751 216.958 352.765 217.113Z" fill="#CDD7D8"/>
<path d="M294.846 50.7008C295.73 48.9321 295.394 48.4546 293.927 50.011C290.27 53.8666 287.001 58.076 283.609 62.1793C281.966 64.1602 282.072 64.8677 284.033 66.5832C285.605 67.9805 286.701 67.8744 287.832 66.1765C289.528 63.6119 291.206 60.9943 292.85 58.4298C293.708 56.8977 294.67 55.4263 295.73 54.0258L294.846 50.7008Z" fill="#656D78"/>
<path d="M309.652 37.4892C311.419 37.1708 312.921 36.9586 314.423 36.6048C315.925 36.2511 317.391 35.7559 319.194 35.243C318.93 36.2347 318.372 37.1228 317.592 37.7894C316.813 38.4559 315.849 38.8693 314.829 38.9748C312.957 39.3109 311.137 39.4877 309.652 37.4892Z" fill="white"/>
<path d="M319.476 22.7916C319.737 22.7747 319.999 22.8115 320.245 22.8999C320.491 22.9883 320.716 23.1263 320.906 23.3054C321.097 23.4844 321.249 23.7008 321.352 23.941C321.456 24.1812 321.509 24.4401 321.508 24.7018C321.523 25.2277 321.331 25.7385 320.975 26.1252C320.618 26.5118 320.125 26.7436 319.6 26.7711C319.07 26.7685 318.56 26.5673 318.171 26.2072C317.782 25.8471 317.542 25.3542 317.498 24.8256C317.493 24.2938 317.698 23.7818 318.069 23.4008C318.439 23.0199 318.945 22.8009 319.476 22.7916Z" fill="#2C3238"/>
<path d="M307.285 27.8323C307.286 28.364 307.087 28.8766 306.726 29.267C306.366 29.6574 305.871 29.8968 305.341 29.937C304.815 29.9562 304.302 29.7661 303.914 29.4083C303.527 29.0505 303.297 28.5539 303.274 28.0269C303.255 27.7665 303.289 27.5049 303.373 27.2579C303.458 27.011 303.592 26.7839 303.767 26.5904C303.943 26.3969 304.155 26.241 304.392 26.1322C304.629 26.0234 304.886 25.964 305.147 25.9575C305.411 25.9383 305.676 25.9718 305.926 26.0559C306.177 26.14 306.409 26.2731 306.607 26.4475C306.806 26.622 306.969 26.8342 307.085 27.0719C307.201 27.3096 307.269 27.5681 307.285 27.8323Z" fill="#2C3238"/>
<path d="M306.596 23.0569C305.907 24.4895 304.529 23.9766 303.61 24.4895L300.553 26.2581C300.576 25.6503 300.775 25.0622 301.127 24.5659C301.478 24.0697 301.967 23.6866 302.532 23.4637C303.109 23.0342 303.792 22.7696 304.508 22.698C305.223 22.6263 305.945 22.7504 306.596 23.0569Z" fill="#A56450"/>
<path d="M321.862 20.8638C320.862 20.9046 319.865 20.9991 318.876 21.1468C317.929 21.3966 317.002 21.7158 316.102 22.1018C316.685 19.6611 319.476 18.9713 321.862 20.8638Z" fill="#A56450"/>
<path d="M313.858 29.5477C314.511 31.0333 316.367 32.2006 315.412 34.4468C314.813 33.7926 314.363 33.0153 314.094 32.1691C313.826 31.323 313.745 30.4283 313.858 29.5477Z" fill="#D3745E"/>
<g clip-path="url(#clip0_330_111)">
<path d="M34.6742 92.7891C34.412 97.4197 34.412 101.656 34.412 105.975L56.6651 113.791C57.3721 112.773 57.8181 111.597 57.9639 110.365C58.1096 109.134 57.9506 107.885 57.5008 106.73C54.5676 98.7334 51.6835 90.7366 48.7667 82.7234C48.6004 82.3329 48.4581 81.9326 48.3407 81.5247C47.7507 78.5198 45.5877 77.7808 43.0641 77.3539C42.7695 79.6378 42.7695 81.9502 43.0641 84.2341C43.6367 88.2599 44.9184 92.1518 46.8495 95.7284C48.2915 98.3064 49.4877 101.049 50.7823 103.709C51.0772 104.316 51.3558 104.94 51.8638 106.04L37.1158 102.658C36.2145 99.4887 37.1322 95.9419 34.6742 92.7891Z" fill="#FFA787"/>
<path d="M50.0286 221.361C45.7844 221.558 41.5566 221.361 37.0995 221.361C38.7381 216.074 37.1978 211.082 36.8864 206.058C36.5751 201.033 35.7722 196.386 35.5591 191.525C35.3789 187.765 35.8869 183.956 35.8869 180.162C35.8869 173.594 35.7558 167.157 35.5919 160.655C35.2806 147.978 34.9037 135.335 34.5759 122.674C34.5759 122.182 34.5759 121.689 34.5759 120.95L45.4403 120.129C46.6549 123.734 47.3556 127.494 47.5214 131.295C47.6184 136.662 47.229 142.026 46.3579 147.322C45.4567 155.22 44.3424 163.085 43.5886 170.983C42.9823 177.552 42.6709 184.12 42.376 190.688C41.9991 198.898 41.7861 207.108 41.5075 215.319C41.5075 217.601 41.5075 217.782 43.7033 218.603C45.8991 219.424 47.9966 220.048 50.1433 220.77C50.0777 220.967 50.0613 221.164 50.0286 221.361Z" fill="#ED8B6E"/>
<path d="M21.4174 221.361C25.6615 221.558 29.8893 221.361 34.3465 221.361C32.7078 216.074 34.2481 211.082 34.5595 206.058C34.8708 201.033 35.6738 196.386 35.8868 191.525C36.067 187.765 35.5591 183.956 35.5591 180.162C35.5591 173.594 35.6902 167.157 35.854 160.655C36.1654 147.978 36.5423 135.335 36.87 122.674C36.87 122.182 36.87 121.689 36.87 120.95L26.0056 120.129C24.791 123.734 24.0904 127.494 23.9245 131.295C23.8275 136.662 24.2169 142.026 25.088 147.322C25.9893 155.22 27.1035 163.085 27.8573 170.983C28.4636 177.552 28.775 184.12 29.0699 190.688C29.4468 198.898 29.6599 207.108 29.9384 215.319C29.9384 217.601 29.9384 217.782 27.7426 218.603C25.5468 219.424 23.4493 220.048 21.3027 220.77C21.3682 220.967 21.3846 221.164 21.4174 221.361Z" fill="#ED8B6E"/>
<path d="M36.0506 164.054C35.5918 148.881 34.5432 134.497 34.6415 119.358L45.8827 118.619C46.0466 118.865 46.2432 119.013 46.276 119.193C47.881 126.19 48.269 133.411 47.4231 140.54C46.4399 147.404 45.7844 154.317 44.9815 161.213C44.8668 162.116 44.7193 163.02 44.5554 164.054L36.0506 164.054Z" fill="#7F43E3"/>
<path d="M36.0507 164.054C36.5095 148.882 36.2569 134.497 36.1586 119.358L25.3993 118.898C25.2354 119.144 25.0388 119.292 25.006 119.472C23.4011 126.469 22.531 133.411 23.377 140.54C24.3602 147.404 25.0156 154.317 25.8186 161.213C25.9333 162.116 26.0548 163.02 26.2186 164.054L36.0507 164.054Z" fill="#7F43E3"/>
<path d="M35.2805 92.7892C35.4936 97.4197 35.5427 101.591 35.5427 105.926L13.2896 113.791C12.5826 112.773 12.1366 111.597 11.9908 110.365C11.8451 109.134 12.0041 107.885 12.4539 106.73C15.3871 98.7334 18.2712 90.7366 21.188 82.7234C21.3614 82.3358 21.5039 81.9349 21.6141 81.5247C22.204 78.5198 24.9733 77.3539 28.3654 77.3211C28.6112 79.6692 27.3002 81.9352 26.9561 84.2341C26.3836 88.2599 25.1019 92.1518 23.1708 95.7284C21.7288 98.3064 20.5325 101.049 19.238 103.709C18.943 104.316 18.6645 104.94 18.1565 106.04L32.9045 102.658C33.7402 99.4887 32.7734 95.9419 35.2805 92.7892Z" fill="#FFA787"/>
<path d="M40.3604 90.4903C38.3448 90.7366 36.3784 91.0322 34.3956 91.2128C33.6346 91.286 32.8668 91.1991 32.1413 90.9577C31.4158 90.7163 30.7486 90.3257 30.1824 89.8109C29.6163 89.2962 29.1637 88.6686 28.8536 87.9684C28.5435 87.2682 28.3828 86.5108 28.3817 85.7448C28.3817 82.9697 28.3817 80.1947 28.3817 77.3211L31.1347 76.73C31.3696 76.7156 31.5992 76.654 31.8099 76.5488C32.0205 76.4436 32.2079 76.2971 32.3608 76.1178C32.5137 75.9385 32.6291 75.7302 32.6999 75.5053C32.7708 75.2804 32.7958 75.0435 32.7733 74.8088C32.7733 73.413 32.9864 72.0009 33.1175 70.4738H38.6889C38.82 71.9844 38.9511 73.3966 39.0494 74.8088C39.1969 76.5986 39.1969 76.5986 41.0322 76.8613C41.3763 76.8613 41.7205 76.9927 42.3104 77.1076C42.1629 81.5904 43.31 86.1717 40.3604 90.4903Z" fill="#ED8B6E"/>
<path d="M27.415 77.0255L29.6927 76.8449V80.6216C29.6927 86.5001 31.4297 87.6988 36.9028 87.4525C39.5247 87.3375 40.5734 86.106 40.7209 83.4623C40.7209 81.8203 40.7209 80.3096 40.7209 78.7332C40.6688 78.3086 40.731 77.8777 40.9012 77.4853C41.1585 77.0967 41.5492 76.8163 41.9991 76.6971C42.2777 76.6971 42.7365 77.0419 42.9167 77.3539C43.177 77.8745 43.3697 78.4263 43.4903 78.996C44.1394 81.2665 45.0122 83.4667 46.0958 85.5641C46.7675 86.9667 47.0346 88.5295 46.8666 90.0761C46.6987 91.6226 46.1024 93.0913 45.1453 94.3162C43.7818 96.3312 42.8958 98.6317 42.555 101.042C42.2142 103.453 42.4276 105.909 43.1789 108.224C43.8867 111.294 44.9366 114.274 46.3088 117.108C47.505 119.292 46.5218 121.082 44.0146 121.098C38.5907 121.098 33.1831 120.852 27.7591 120.688C27.2621 120.626 26.7766 120.493 26.317 120.293C26.123 120.252 25.9396 120.171 25.7787 120.054C25.6179 119.938 25.483 119.789 25.3827 119.618C25.2825 119.446 25.219 119.256 25.1965 119.058C25.174 118.861 25.1929 118.661 25.2519 118.471C25.5141 117.288 25.8254 116.123 26.1532 114.94C26.9561 112.05 27.9557 109.21 28.5948 106.27C29.0454 104.277 29.0786 102.212 28.6921 100.205C28.3057 98.1985 27.5082 96.2939 26.3498 94.6118C25.5719 93.5734 25.0137 92.3869 24.7094 91.1248C24.4051 89.8627 24.3611 88.5516 24.5801 87.2719C24.6275 86.6892 24.8129 86.1263 25.1208 85.6298C26.9725 83.3474 26.9397 80.5887 27.2019 77.8958C27.2516 77.6009 27.3228 77.31 27.415 77.0255Z" fill="#FF8089"/>
<path d="M35.2805 92.7892C32.8225 95.9419 33.7402 99.4887 32.8553 102.641L18.1073 106.024C18.6153 104.924 18.8939 104.382 19.1888 103.692C20.4834 101.032 21.6796 98.29 23.1216 95.712V95.6135H16.4031C15.1249 99.3245 13.8085 103.03 12.4539 106.73C12.0041 107.885 11.8451 109.134 11.9908 110.365C12.1366 111.597 12.5826 112.773 13.2896 113.791L35.5427 105.975C35.5427 101.656 35.4936 97.4197 35.2805 92.7892Z" fill="#FFA787"/>
<path d="M34.6742 92.7892C37.1322 95.9419 36.2145 99.4887 37.0994 102.641L51.8474 106.024C51.3394 104.924 51.0608 104.382 50.7659 103.692C49.4713 101.032 48.2751 98.29 46.8331 95.712C46.8331 95.712 46.8331 95.712 46.8331 95.6135H53.5352C54.8789 99.3464 56.2281 103.063 57.5827 106.763C58.0325 107.918 58.1916 109.167 58.0458 110.398C57.9001 111.629 57.454 112.806 56.747 113.824L34.412 105.975C34.412 101.656 34.412 97.4197 34.6742 92.7892Z" fill="#FFA787"/>
<path d="M47.9638 56.4507C50.684 57.7479 51.0117 60.5722 48.5209 62.2635C47.4853 62.9921 46.7009 64.0248 46.276 65.2192C45.3233 67.6866 43.6786 69.8251 41.5402 71.3769C39.9372 72.5877 37.9844 73.2427 35.977 73.2427C33.9695 73.2427 32.0167 72.5877 30.4137 71.3769C28.4311 69.9533 26.8778 68.0104 25.9237 65.7611C25.745 65.2649 25.4667 64.8108 25.1059 64.4267C24.7451 64.0426 24.3096 63.7367 23.8262 63.5279C22.9885 63.1052 22.2849 62.457 21.7943 61.6559C20.4014 59.5213 21.2863 57.7807 23.9246 57.3866C24.1212 55.8924 24.2851 54.3488 24.5636 52.8546C25.0619 50.1176 26.2461 47.5524 28.0048 45.3997C28.9151 44.1284 30.1145 43.0926 31.5037 42.3781C32.8928 41.6636 34.4319 41.2909 35.9933 41.2909C37.5548 41.2909 39.0938 41.6636 40.483 42.3781C41.8722 43.0926 43.0716 44.1284 43.9818 45.3997C45.9256 47.8411 47.1767 50.7624 47.6033 53.8562C47.7344 54.7429 47.8491 55.6789 47.9638 56.4507Z" fill="#FFA787"/>
<path d="M36.6078 38.3553C39.4062 38.6583 42.0578 39.7645 44.244 41.5409C44.4575 41.7024 44.6601 41.8779 44.8503 42.0664C46.5267 43.7875 47.8075 45.855 48.6029 48.1241C49.3983 50.3933 49.6891 52.8092 49.455 55.2027C49.432 55.6735 49.2911 56.1309 49.0453 56.5328C48.7627 56.9598 48.3393 57.2737 47.8491 57.4195C47.5869 57.4195 47.0625 56.9597 46.915 56.5985C45.5404 53.725 43.228 51.4078 40.3604 50.0303C38.3197 48.6716 35.9564 47.8785 33.5108 47.7314C32.8717 48.7167 32.2818 49.7019 31.6427 50.6379C29.97 52.9343 27.9131 54.9232 25.5632 56.5164C23.9246 57.6987 23.1544 57.4195 22.8758 55.3834C22.7037 53.8447 22.7037 52.2915 22.8758 50.7528C22.9394 50.2954 22.9003 49.8296 22.7614 49.3893C22.6225 48.949 22.3872 48.5453 22.0729 48.2076C20.7552 46.7938 19.8588 45.0386 19.4853 43.1407C19.1117 41.2428 19.2758 39.2779 19.959 37.4686C20.3326 36.2571 21.0482 35.1798 22.0194 34.3668C22.9906 33.5539 24.1759 33.04 25.4321 32.8873C27.7734 32.4904 30.178 32.7285 32.3965 33.577C33.475 33.8975 34.4418 34.5156 35.1865 35.3605C35.9312 36.2055 36.4237 37.2432 36.6078 38.3553Z" fill="#8F594F"/>
<path d="M30.9873 60.605C30.9917 61.0959 30.8036 61.5689 30.4634 61.9221C30.1231 62.2753 29.6581 62.4805 29.1683 62.4934C28.9264 62.5069 28.6843 62.4705 28.457 62.3864C28.2297 62.3023 28.022 62.1723 27.8469 62.0045C27.6717 61.8367 27.5329 61.6346 27.4388 61.4109C27.3448 61.1871 27.2976 60.9463 27.3003 60.7035C27.2869 60.2169 27.4649 59.7444 27.796 59.3881C28.1271 59.0318 28.5846 58.8201 29.07 58.7988C29.5558 58.8093 30.0206 58.9996 30.3746 59.3332C30.7286 59.6667 30.9469 60.1198 30.9873 60.605Z" fill="#2C3238"/>
<path d="M44.3915 60.7035C44.366 61.1914 44.1513 61.6499 43.7931 61.9812C43.4349 62.3126 42.9616 62.4905 42.4743 62.4769C42.2334 62.4773 41.9949 62.4284 41.7735 62.3332C41.5521 62.238 41.3525 62.0984 41.1868 61.9232C41.0211 61.7479 40.8929 61.5406 40.8099 61.314C40.727 61.0873 40.6911 60.8461 40.7045 60.605C40.7088 60.3592 40.7613 60.1166 40.8592 59.8911C40.957 59.6656 41.0982 59.4617 41.2748 59.2909C41.4513 59.1201 41.6596 58.9858 41.8879 58.8958C42.1163 58.8057 42.36 58.7616 42.6054 58.7659C43.0881 58.814 43.5364 59.0378 43.8656 59.3949C44.1948 59.7519 44.3819 60.2175 44.3915 60.7035Z" fill="#2C3238"/>
<path d="M31.3805 57.6001L26.4645 57.9121C27.1199 56.27 29.0208 56.0073 31.3805 57.6001Z" fill="#8F594F"/>
<path d="M40.1146 57.7807C42.0974 56.27 43.5067 56.3193 45.0306 57.7807H40.1146Z" fill="#8F594F"/>
<path d="M33.8058 68.454H37.9844C36.3457 69.9319 35.2642 69.9154 33.8058 68.454Z" fill="#D3745E"/>
<path d="M35.2641 66.7134C34.7397 65.5148 34.9036 65.0714 36.1818 64.8744C35.8212 65.5312 35.6246 65.9909 35.2641 66.7134Z" fill="#D3745E"/>
</g>
<g clip-path="url(#clip1_330_111)">
<path d="M92.9042 76.5614C93.1198 71.6576 92.64 67.0971 89.7307 62.8547C89.6232 63.2331 89.5482 63.62 89.5067 64.0112C89.2237 68.9952 88.9734 73.98 88.7231 78.9649C88.6769 79.5105 88.6911 80.0597 88.7657 80.6022C89.0084 82.0807 89.4083 82.4667 90.9401 82.7324C97.9651 83.8825 105.009 84.9348 112.032 86.1667C116.175 86.8765 120.371 87.2289 124.574 87.2198C126.618 87.2687 126.904 86.9647 127.034 84.9224C127.23 82.5048 126.719 80.0824 125.565 77.9491C123.072 73.3895 120.746 68.7357 118.352 64.1293C117.899 63.2512 117.396 62.3883 116.782 61.3754L107.517 66.9625L113.229 76.5082C111.691 77.1914 96.7348 77.1768 92.9042 76.5614Z" fill="#FFA787"/>
<path d="M86.2048 50.2032C86.3535 47.4086 86.6174 39.806 86.7634 37.1259L95.7539 36.834C96.0168 39.5238 97.2624 47.6372 97.5225 50.4415C94.1493 50.5407 89.6099 50.1375 86.2048 50.2032Z" fill="#ED8B6E"/>
<path d="M80.827 225.539C80.7245 225.16 80.7525 224.757 80.9066 224.396C81.0607 224.035 81.3319 223.736 81.6765 223.547C82.8764 222.643 83.9968 221.639 85.2437 220.818C85.7363 220.535 86.1279 220.105 86.3633 219.588C86.5988 219.072 86.6663 218.494 86.5563 217.937C86.447 217.034 86.4853 216.119 86.4617 215.054L93.0123 214.835C92.9923 215.669 92.9759 216.356 92.9594 217.043C93.055 218.518 93.1992 220.01 93.3439 221.486C93.3388 221.699 93.4322 221.898 93.4598 222.111C93.6908 224.767 93.2215 225.231 90.585 225.315C88.9472 225.374 87.1926 225.528 85.5043 225.651L80.827 225.539Z" fill="#FFA787"/>
<path d="M98.3536 222.271L98.2036 214.291C100.341 214.315 102.361 214.353 104.48 214.391L104.88 217.234C109.118 219.02 113.292 220.796 117.484 222.558C118.428 222.955 119.374 223.337 119.025 224.67C117.227 225.17 101.091 223.331 98.3536 222.271Z" fill="#FFA787"/>
<path d="M77.0464 108.745C77.9622 108.767 78.6845 108.67 79.3554 108.67L104.188 108.97C104.891 108.987 105.611 109.004 106.314 109.021C106.776 108.94 107.031 109.229 107.432 109.473C113.089 146.556 110.122 202.121 105.681 216.742L97.5102 216.285C97.5102 216.285 96.081 144.103 96.4433 128.976C96.4433 128.976 93.1646 129.225 93.1865 131.729C93.4532 158.956 95.4444 186.09 95.2542 213.465C95.2342 214.299 95.215 215.1 95.188 216.229L84.9994 215.985C84.8424 214.345 84.6199 212.703 84.4628 211.063C83.5147 200.546 82.572 190.035 81.6345 179.529C80.7711 169.805 79.8913 160.08 79.061 150.34C78.2306 140.601 77.5195 130.667 76.8714 120.834C76.6553 117.556 76.803 114.123 76.8011 110.785C76.8339 110.099 76.9617 109.545 77.0464 108.745Z" fill="#E8E9EE"/>
<path d="M87.7691 76.4383C87.7885 71.5298 88.4861 66.9975 91.5951 62.8993C91.6845 63.2824 91.7408 63.6724 91.7636 64.0651C91.7857 69.062 91.808 74.0533 91.8304 79.0392C91.8504 79.5865 91.8099 80.1343 91.7094 80.6727C91.3798 82.1375 90.9783 82.5042 89.4356 82.6963C82.3635 83.5088 75.2774 84.2227 68.2034 85.1168C64.0314 85.6271 59.8233 85.7781 55.6255 85.5683C53.5645 85.5353 53.2928 85.267 53.2436 83.2204C53.1641 80.7961 53.7899 78.401 55.0451 76.3255C57.7531 71.8904 60.2999 67.3533 62.911 62.8668C63.406 62.0114 63.9497 61.1735 64.6114 60.1912L73.6142 66.2158L67.4688 75.4776C68.9577 76.1678 83.897 76.8692 87.7691 76.4383Z" fill="#FFA787"/>
<path d="M107.945 111.301C105.994 111.451 104.304 111.639 102.617 111.697C98.8497 111.852 95.0809 112.073 91.3015 112.048C88.3251 111.977 85.3378 111.676 82.3486 111.457L78.9524 111.147C76.9604 110.968 76.8945 110.983 76.8917 109.052C76.8781 106.204 76.8649 103.34 76.9984 100.496C77.0855 94.9366 76.5432 89.3849 75.3821 83.947C74.5001 79.0987 73.4697 74.2959 72.6531 69.4492C72.5961 68.8965 72.3928 68.3691 72.0642 67.9211C71.7355 67.4732 71.2933 67.121 70.7832 66.9008C68.2275 65.6614 65.7399 64.3092 63.1219 62.9374C63.2436 62.5856 63.3941 62.2444 63.5718 61.9173C65.555 58.3648 67.5702 54.8459 69.5534 51.2934C70.3541 49.835 71.6447 48.7067 73.1969 48.108C76.6841 46.6698 80.2183 45.3144 83.7669 44.0413C84.4971 43.6755 85.3034 43.4874 86.12 43.4922C90.6299 54.0073 93.2926 50.782 97.0008 44.211C99.6183 44.8505 102.159 45.7727 104.577 46.9615C107.006 48.0015 109.435 49.0742 111.764 50.2263C112.374 50.5726 112.868 51.091 113.184 51.7167C115.371 56.0562 117.476 60.4102 119.614 64.7486C119.739 65.0134 119.814 65.277 119.983 65.7393C117.865 67.0169 115.591 68.0183 113.219 68.719C112.489 68.7943 111.809 69.127 111.302 69.6575C110.794 70.188 110.492 70.8817 110.45 71.6145C109.657 76.0299 108.359 80.3515 107.582 84.7674C106.54 90.1587 106.408 95.6863 107.19 101.121C107.636 104.356 107.672 107.662 107.945 111.301Z" fill="#656D78"/>
<path d="M78.6974 21.371C79.0309 19.7427 79.264 18.2101 79.6937 16.6659C80.5387 13.1305 82.5372 9.97719 85.3737 7.7039C87.0077 6.39199 89.0528 5.69996 91.1477 5.75013C93.2425 5.80031 95.2522 6.58945 96.8215 7.97809C99.1141 9.90452 100.765 12.4843 101.553 15.3731C102.114 17.252 102.443 19.2235 102.931 21.3951C105.595 22.1953 105.326 24.5779 105.06 26.7969C105.081 27.6443 104.772 28.4668 104.198 29.091C103.625 29.7152 102.831 30.0924 101.985 30.1432C100.833 32.4719 99.7829 34.6395 98.6841 36.7895C98.4032 37.2725 98.0971 37.7404 97.7669 38.1911C97.0919 39.1928 96.1589 39.9935 95.0665 40.5088C93.9741 41.0241 92.7628 41.2349 91.5605 41.1188C86.4378 41.1597 83.0373 38.9838 81.32 34.1645C81.1048 33.5867 80.7579 33.0384 80.5742 32.5103C80.4221 31.7815 80.0994 31.0991 79.6326 30.519C79.1658 29.939 78.5682 29.4778 77.8887 29.1734C77.3233 28.8336 76.847 28.3641 76.499 27.8038C76.1511 27.2434 75.9415 26.6083 75.8877 25.9509C75.3359 23.7123 76.2878 22.2297 78.6974 21.371Z" fill="#FFA787"/>
<path d="M100.329 2.2531C101.941 3.27351 101.645 4.70639 101.315 6.20391C104.056 7.90589 103.826 10.6658 103.778 13.3482C103.729 14.3354 103.739 15.3246 103.805 16.3107C104.127 18.2697 103.856 20.2801 103.029 22.0847C102.155 24.3622 101.926 26.8367 102.367 29.236C102.501 31.651 102.272 34.0725 101.687 36.4196C101.419 37.6367 100.881 38.778 100.112 39.7593C99.344 40.7406 98.3652 41.5369 97.248 42.0895C96.5405 42.4756 95.7488 42.6814 94.9428 42.6888C92.5856 42.7443 90.2272 42.6605 87.8798 42.4379C86.2314 42.2765 84.6833 41.5722 83.4784 40.4357C82.2736 39.2992 81.4803 37.7947 81.2231 36.1585C80.653 33.7461 80.3282 31.2823 80.2538 28.8045C80.0899 25.7754 79.5119 22.7831 78.5359 19.9108C77.3997 16.58 77.6163 12.9364 79.139 9.7636C79.6248 8.90553 80.29 8.16239 81.0893 7.5849C82.0506 6.90658 83.0852 6.33855 84.1734 5.89153C85.5965 5.42922 86.8926 4.64238 87.9593 3.59315C88.5416 3.07443 89.2424 2.70669 90 2.52226C90.7577 2.33783 91.5491 2.34235 92.3046 2.53543C93.8372 2.7685 95.3686 3.05063 96.8832 3.34872C97.4974 3.57828 98.1708 3.59508 98.7956 3.39643C99.4205 3.19778 99.9606 2.79518 100.329 2.2531V2.2531ZM88.3749 8.79029C86.7066 10.1249 85.1376 11.4127 83.5074 12.5191C83.0546 12.7867 82.6813 13.1702 82.4258 13.63C82.1704 14.0897 82.042 14.6093 82.0539 15.1351C81.9552 19.2563 80.9422 23.2902 81.8886 27.5019C81.8975 27.8073 81.8902 28.113 81.8667 28.4177C82.3797 30.6869 83.3224 32.8368 84.644 34.7514C84.84 33.5234 85.0985 32.3062 85.4186 31.1046C85.5796 30.4707 85.9269 29.8996 86.4157 29.4651C86.9045 29.0305 87.5122 28.7524 88.1606 28.6666C90.1861 28.347 92.2527 28.3965 94.2606 28.8127C95.1534 28.9584 95.9738 29.3926 96.5964 30.0488C97.219 30.7049 97.6095 31.547 97.7081 32.4462C97.7789 32.906 97.8497 33.3659 97.9757 34.2525C99.4478 32.3194 100.388 30.0346 100.704 27.6253C100.654 26.265 100.78 24.9041 101.079 23.5761C101.978 20.865 101.47 18.1692 101.275 15.3991C101.08 13.844 100.301 12.4211 99.0953 11.4197C98.683 11.0514 98.1991 10.772 97.674 10.5989C97.1488 10.4259 96.5937 10.3629 96.0431 10.4139C93.4017 10.4142 90.7895 9.86111 88.3749 8.79029ZM91.7832 29.7679C90.7486 29.9232 89.6992 30.0126 88.6954 30.2503C88.2029 30.353 87.7507 30.5964 87.3937 30.9509C87.0367 31.3054 86.7901 31.7558 86.6839 32.2476C86.4767 33.3234 86.3955 34.4198 86.4421 35.5144C86.4213 36.3812 87.6738 37.3766 88.6021 37.5625C89.5303 37.7484 89.7936 37.002 90.1855 36.3568C90.3046 36.1439 90.4795 35.9675 90.6915 35.8466C90.9034 35.7257 91.1443 35.6649 91.3882 35.6707C91.6322 35.6766 91.8699 35.7488 92.0758 35.8797C92.2817 36.0106 92.448 36.1952 92.5568 36.4136C93.4277 37.629 94.4903 37.6708 95.337 36.4802C95.5119 36.2233 95.6558 35.9466 95.7658 35.6559C97.1061 32.3008 94.9793 29.5499 91.7832 29.7679Z" fill="#495059"/>
<path d="M91.814 79.0389C91.8025 74.0532 91.7802 69.0619 91.7472 64.0648C91.7244 63.6721 91.6681 63.2821 91.5787 62.899C88.4697 66.9972 87.7705 71.5949 87.7527 76.438C83.897 76.8693 68.9577 76.1678 67.4688 75.4776L69.6404 72.257L57.7184 71.9714C56.865 73.4401 56.0117 74.9087 55.126 76.3602C53.8709 78.4357 53.2451 80.8309 53.3245 83.2551C53.2756 85.2993 53.6291 85.5696 55.6722 85.6677C59.87 85.8775 64.0781 85.7264 68.25 85.2162C75.3241 84.322 82.4101 83.6081 89.4822 82.7957C91.025 82.6036 91.4265 82.2368 91.7561 80.772C91.843 80.1985 91.8624 79.6169 91.814 79.0389Z" fill="#FFA787"/>
<path d="M91.1925 79.024C91.4427 74.0446 91.6985 69.0599 91.9598 64.0699C92.0155 63.6799 92.0958 63.2938 92.2002 62.9139C95.1095 67.1562 95.5877 71.7821 95.3737 76.6206C99.2043 77.2359 111.723 77.1921 113.211 76.5732L111.196 73.2523L123.118 73.5379C123.9 75.0457 124.682 76.5535 125.497 78.0457C126.652 80.1789 127.162 82.6013 126.967 85.0189C126.918 87.0632 126.552 87.3162 124.506 87.3163C120.341 87.309 116.183 86.9466 112.08 86.2333C105.056 85.0014 100.482 84.0082 93.4407 82.8578C91.9089 82.592 91.5254 82.2065 91.2663 80.7276C91.1845 80.1636 91.1598 79.5929 91.1925 79.024Z" fill="#FFA787"/>
<path d="M88.0511 18.8952L82.5071 18.7624C82.8712 18.1594 83.4036 17.6758 84.0388 17.3713C84.674 17.0667 85.3844 16.9544 86.0826 17.0481C86.587 17.0376 87.0755 17.2251 87.4434 17.5703C87.8113 17.9156 88.0294 18.3911 88.0511 18.8952Z" fill="#495059"/>
<path d="M101.175 18.8822C100.21 18.8591 99.2321 18.6884 98.266 18.7144C97.3 18.7404 96.4093 19.7172 95.3105 19.1345C95.951 16.9899 98.7896 16.6652 101.252 18.3932C101.23 18.6381 101.211 18.7195 101.175 18.8822Z" fill="#495059"/>
<path d="M87.6371 32.0741C89.1557 32.2087 90.411 32.4024 91.6703 32.4326C92.9296 32.4627 94.079 32.2939 95.4228 32.2115C94.0874 33.9959 89.523 33.952 87.6371 32.0741Z" fill="#D3745E"/>
<path d="M87.8519 22.4249C87.5205 22.8293 87.0971 23.1483 86.617 23.3554C86.1369 23.5624 85.6142 23.6514 85.0927 23.6149C84.5712 23.5784 84.066 23.4174 83.6195 23.1454C83.173 22.8735 82.7981 22.4985 82.5264 22.0519C83.4014 22.2658 84.288 22.4291 85.1819 22.5409C86.0733 22.5518 86.9647 22.5131 87.8519 22.4249Z" fill="#495059"/>
<path d="M95.6068 22.4797L100.922 22.607C99.8967 24.4152 97.1979 24.3669 95.6068 22.4797Z" fill="#495059"/>
<path d="M91.3712 27.8437C91.6543 27.3295 91.8813 26.7863 92.0482 26.2236C92.1214 25.5885 92.1367 24.948 92.094 24.3101C92.6419 24.6641 93.0411 25.2065 93.216 25.8349C93.3909 26.4633 93.3294 27.134 93.0432 27.7201C92.5844 28.4291 92.0097 28.5135 91.3712 27.8437Z" fill="#D3745E"/>
</g>
<defs>
<clipPath id="clip0_330_111">
<rect width="58.0252" height="188.786" fill="white" transform="translate(0 32.6902)"/>
</clipPath>
<clipPath id="clip1_330_111">
<rect width="95.3547" height="223.688" fill="white" transform="translate(55.2087 1.17261) rotate(1.37206)"/>
</clipPath>
</defs>
</svg>
