<svg width="38" height="38" viewBox="0 0 38 38" fill="none" xmlns="http://www.w3.org/2000/svg">
<path fill-rule="evenodd" clip-rule="evenodd" d="M9.16366 22.1977C9.23297 22.2211 9.30293 22.2376 9.37281 22.2478C9.44902 22.4269 9.5475 22.6586 9.66238 22.9295C9.94275 23.5908 10.3205 24.4851 10.7105 25.4181C11.5057 27.3208 12.3078 29.2821 12.485 29.8435C12.7043 30.5375 12.9361 31.0093 13.1892 31.3314C13.32 31.498 13.4714 31.6435 13.6484 31.7536C13.7376 31.809 13.8318 31.8545 13.93 31.8884C13.9344 31.8899 13.9387 31.8913 13.943 31.8928C14.4497 32.0841 14.9117 32.0043 15.2009 31.9069C15.3557 31.8548 15.4809 31.7918 15.5696 31.7408C15.6149 31.7148 15.6531 31.6905 15.6836 31.67L15.6908 31.6652L20.1656 28.8746L25.3344 32.8374C25.4107 32.8959 25.4939 32.9449 25.582 32.9834C26.203 33.2543 26.8043 33.3488 27.3699 33.2716C27.9346 33.1944 28.383 32.9572 28.7167 32.6902C29.0435 32.4287 29.2651 32.1359 29.403 31.9182C29.4735 31.8071 29.5264 31.7088 29.5637 31.6336C29.5825 31.5957 29.5975 31.5631 29.6092 31.5369L29.6241 31.5024L29.6297 31.4889L29.6321 31.4831L29.6332 31.4804L29.6342 31.478C29.6613 31.41 29.6821 31.3398 29.6964 31.268L34.4151 7.47767C34.4302 7.40158 34.4378 7.3242 34.4378 7.24663C34.4378 6.54995 34.1752 5.88748 33.558 5.48548C33.0305 5.1419 32.4428 5.12711 32.0714 5.1553C31.6707 5.18571 31.3007 5.28462 31.0524 5.36365C30.9231 5.40478 30.8148 5.44447 30.7367 5.47474C30.6974 5.48996 30.6652 5.50301 30.6413 5.51297L30.6233 5.52055L4.15988 15.9017L4.15645 15.903C4.13958 15.9091 4.11793 15.9172 4.0922 15.9272C4.04096 15.9472 3.9723 15.9753 3.8921 16.0116C3.73569 16.0825 3.51628 16.1933 3.29111 16.3475C2.9314 16.5938 2.10412 17.2685 2.24343 18.382C2.35456 19.2704 2.96316 19.816 3.33396 20.0784C3.53756 20.2224 3.73099 20.3254 3.87186 20.3925C3.93721 20.4236 4.0729 20.4787 4.13177 20.5027L4.14663 20.5087L9.16366 22.1977ZM31.5494 7.70745L31.5457 7.70905C31.5325 7.71478 31.5193 7.72027 31.5059 7.72552L5.01036 18.1193C4.99653 18.1247 4.98259 18.1299 4.96856 18.1348L4.95382 18.1404C4.93687 18.147 4.90833 18.1586 4.87251 18.1748C4.8522 18.184 4.831 18.1941 4.80939 18.2048C4.83908 18.2216 4.8675 18.2361 4.89275 18.2481C4.91699 18.2597 4.93548 18.2675 4.9456 18.2717L9.92143 19.9469C10.0125 19.9775 10.0974 20.0181 10.1753 20.0671L26.6052 10.4492L26.6206 10.4401C26.6326 10.433 26.6483 10.4239 26.6671 10.4133C26.7045 10.3921 26.7559 10.364 26.817 10.3329C26.931 10.2748 27.1135 10.1887 27.319 10.1252C27.4621 10.0809 27.884 9.95636 28.3402 10.1027C28.6217 10.193 28.9132 10.3871 29.1028 10.716C29.1969 10.8793 29.2471 11.0435 29.2714 11.1937C29.336 11.4304 29.3258 11.6641 29.2752 11.8659C29.1664 12.3005 28.861 12.6395 28.5831 12.8989C28.3451 13.1212 25.2649 16.0913 22.2263 19.0232C20.7109 20.4854 19.211 21.9331 18.09 23.0152L17.3537 23.7261L26.6509 30.854C26.8641 30.9303 26.9902 30.9264 27.0485 30.9184C27.118 30.9089 27.1748 30.8822 27.2329 30.8357C27.2979 30.7837 27.3547 30.7136 27.3972 30.6466L27.3989 30.6438L31.9755 7.56994C31.9076 7.58627 31.8389 7.6057 31.7727 7.62677C31.6977 7.65064 31.6359 7.67336 31.5949 7.68925C31.5746 7.69711 31.56 7.70308 31.5521 7.70637L31.5494 7.70745ZM18.1524 27.3311L16.2975 25.9091L15.8481 28.7681L18.1524 27.3311ZM14.596 23.0872L16.4405 21.3065C17.5616 20.2242 19.0617 18.7764 20.5772 17.3141L22.1169 15.8286L11.7936 21.8718L11.849 22.0024C12.1303 22.666 12.5098 23.5643 12.9018 24.5022C13.1949 25.2036 13.5014 25.942 13.7806 26.6257L14.2287 23.7751C14.2719 23.5002 14.4062 23.2623 14.596 23.0872Z" fill="#00B0E5"/>
</svg>
