<svg width="29" height="28" viewBox="0 0 29 28" fill="none" xmlns="http://www.w3.org/2000/svg">
<g clip-path="url(#clip0_2_1259)">
<path fill-rule="evenodd" clip-rule="evenodd" d="M0.757324 13.9624C0.757324 6.34214 7.02067 0.140869 14.7214 0.140869C22.4202 0.140869 28.6854 6.34214 28.6854 13.9624C28.6854 21.5827 22.4202 27.784 14.7214 27.784C7.02067 27.784 0.757324 21.5827 0.757324 13.9624ZM20.9587 11.2119C20.9587 11.0737 20.9559 10.9355 20.9493 10.7982C21.5791 10.35 22.1221 9.79313 22.5524 9.15437C21.966 9.41209 21.3436 9.58077 20.7064 9.65471C21.3778 9.25706 21.8806 8.63168 22.1214 7.89477C21.4902 8.26586 20.7993 8.52703 20.0789 8.66693C19.595 8.15482 18.9538 7.81527 18.2548 7.70105C17.5558 7.58683 16.8384 7.70435 16.2138 8.03533C15.5893 8.36632 15.0927 8.89223 14.8013 9.53134C14.5098 10.1704 14.4399 10.8869 14.6022 11.5695C13.3242 11.5058 12.0741 11.1767 10.9329 10.6036C9.7918 10.0306 8.78523 9.22629 7.9786 8.24307C7.69268 8.72925 7.54263 9.28198 7.54386 9.84453C7.54335 10.3681 7.67353 10.8838 7.92282 11.3456C8.17212 11.8074 8.53281 12.2012 8.97284 12.4918C8.46275 12.4755 7.96393 12.3391 7.51779 12.0938L7.51686 12.1334C7.51686 13.6759 8.62467 14.9622 10.0956 15.2534C9.62185 15.3801 9.1252 15.3984 8.64329 15.3068C8.84834 15.9392 9.24815 16.4923 9.78671 16.8886C10.3253 17.2848 10.9756 17.5043 11.6465 17.5164C10.5079 18.4006 9.10185 18.8799 7.65464 18.8774C7.39491 18.8774 7.1389 18.8636 6.88754 18.8332C8.35697 19.7679 10.0674 20.2637 11.8141 20.2614C17.7283 20.2614 20.9596 15.4165 20.9596 11.2119H20.9587Z" fill="white"/>
</g>
<defs>
<clipPath id="clip0_2_1259">
<rect width="27.9281" height="27.6431" fill="white" transform="translate(0.757324 0.139893)"/>
</clipPath>
</defs>
</svg>
