<svg width="29" height="29" viewBox="0 0 29 29" fill="none" xmlns="http://www.w3.org/2000/svg">
<g clip-path="url(#clip0_2_1261)">
<path fill-rule="evenodd" clip-rule="evenodd" d="M0.799805 13.9283C0.799805 6.23669 6.98818 0.000976562 14.6214 0.000976562C22.2546 0.000976562 28.4429 6.23669 28.4429 13.9283C28.4429 21.6198 22.2546 27.8555 14.6214 27.8555C6.98818 27.8555 0.799805 21.6198 0.799805 13.9283ZM20.1168 20.0711L22.5402 20.0368C22.5402 20.0368 23.8081 19.9578 23.2064 18.9532L23.1907 18.9254C23.106 18.7675 22.7475 18.1083 21.4041 16.8521C20.7637 16.2532 20.4292 15.9477 20.3942 15.6098C20.3453 15.1464 20.8604 14.6237 21.9192 13.2022C23.0341 11.7055 23.4801 10.7909 23.34 10.3991C23.2083 10.0268 22.3882 10.1252 22.3882 10.1252L19.6589 10.1419C19.6589 10.1419 19.4562 10.114 19.306 10.205C19.1604 10.2942 19.0655 10.5003 19.0655 10.5003C19.0655 10.5003 18.6333 11.659 18.0574 12.6451C16.842 14.723 16.3564 14.8326 16.1583 14.7045C15.7713 14.4519 15.7898 13.7732 15.8054 13.1799C15.8082 13.0657 15.8109 12.9543 15.8109 12.8503C15.8109 12.386 15.8275 11.9849 15.8414 11.6395C15.8874 10.4817 15.9086 9.94506 15.2203 9.777C14.9245 9.70551 14.7052 9.65816 13.9469 9.6498C12.9729 9.63959 12.1501 9.65351 11.6829 9.88192C11.3724 10.037 11.1328 10.3777 11.2784 10.3972C11.459 10.4223 11.8681 10.5086 12.0837 10.8058C12.3638 11.1883 12.3537 12.0499 12.3537 12.0499C12.3537 12.0499 12.515 14.4213 11.9787 14.7165C11.6101 14.918 11.1061 14.5058 10.0225 12.62C9.46777 11.6525 9.04852 10.5848 9.04852 10.5848C9.04852 10.5848 8.96743 10.3852 8.82369 10.2793C8.64861 10.1493 8.40443 10.1085 8.40443 10.1085L5.8115 10.1252C5.8115 10.1252 5.42174 10.1363 5.27891 10.3072C5.15176 10.4594 5.26878 10.7723 5.26878 10.7723C5.26878 10.7723 7.29963 15.5587 9.59769 17.9709C11.7059 20.1825 14.0998 20.0368 14.0998 20.0368H15.1844C15.1844 20.0368 15.5115 20.0006 15.6792 19.8186C15.8331 19.6514 15.8275 19.3385 15.8275 19.3385C15.8275 19.3385 15.8063 17.8715 16.4818 17.6552C16.8853 17.5271 17.3571 18.073 17.8676 18.6617C18.2012 19.0479 18.5513 19.4528 18.9097 19.7007C19.5953 20.1742 20.1168 20.0711 20.1168 20.0711Z" fill="white"/>
</g>
<defs>
<clipPath id="clip0_2_1261">
<rect width="27.6431" height="28.7831" fill="white" transform="translate(0.799805)"/>
</clipPath>
</defs>
</svg>
