<svg width="38" height="38" viewBox="0 0 38 38" fill="none" xmlns="http://www.w3.org/2000/svg">
<path d="M12.6108 9.81953C12.3167 9.77655 12.0167 9.83559 11.7609 9.98681H11.739C11.145 10.335 10.6098 10.7752 10.1534 11.2908C9.77417 11.7293 9.56843 12.173 9.5144 12.6001C9.48219 12.8546 9.50401 13.1092 9.57986 13.3523L9.60688 13.369C10.0339 14.6242 10.5919 15.8315 11.2735 16.9683C12.1516 18.5653 13.2321 20.0422 14.4884 21.3625L14.5258 21.4165L14.585 21.4601L14.6224 21.5038L14.6661 21.5412C15.9911 22.8011 17.4716 23.8867 19.0717 24.7716C20.9004 25.7671 22.0102 26.2378 22.6762 26.4331V26.4435C22.8715 26.5027 23.0492 26.5297 23.2279 26.5297C23.7956 26.4881 24.3329 26.2577 24.7543 25.8751C25.2677 25.4186 25.7029 24.8813 26.0428 24.2843V24.2739C26.3618 23.6733 26.2537 23.105 25.7934 22.7205C24.8715 21.9147 23.8747 21.199 22.8165 20.5832C22.1078 20.1987 21.3878 20.4315 21.0958 20.8211L20.4734 21.6056C20.1544 21.9953 19.5746 21.9412 19.5746 21.9412L19.558 21.9516C15.2344 20.8471 14.0811 16.4695 14.0811 16.4695C14.0811 16.4695 14.0271 15.8741 14.4271 15.5707L15.2064 14.9431C15.5794 14.6397 15.8392 13.9207 15.4391 13.211C14.8275 12.1513 14.1134 11.1543 13.307 10.2341C13.1307 10.0172 12.8834 9.8696 12.6087 9.81745L12.6108 9.81953Z" fill="#7D529E"/>
<path d="M19.9171 7.91666C19.4799 7.91666 19.1255 8.2711 19.1255 8.70833C19.1255 9.14555 19.4799 9.49999 19.9171 9.49999C21.9192 9.49999 23.5829 10.1544 24.8971 11.4075C25.5737 12.0937 26.1003 12.906 26.4461 13.7948C26.7931 14.6871 26.951 15.6384 26.9105 16.5914C26.8919 17.0282 27.231 17.3974 27.6678 17.4159C28.1046 17.4345 28.4738 17.0955 28.4924 16.6586C28.5422 15.4863 28.3479 14.3166 27.9217 13.2208C27.4954 12.1251 26.8467 11.1267 26.0153 10.2861L25.9994 10.2709C24.3686 8.71124 22.3015 7.91666 19.9171 7.91666Z" fill="#7D529E"/>
<path d="M19.8633 10.5202C19.426 10.5202 19.0716 10.8746 19.0716 11.3118C19.0716 11.7491 19.426 12.1035 19.8633 12.1035H19.8891C21.3338 12.2053 22.385 12.6869 23.122 13.4773C23.8764 14.2914 24.2673 15.3026 24.2384 16.5537C24.2282 16.9908 24.5744 17.3533 25.0115 17.3635C25.4486 17.3736 25.8112 17.0274 25.8213 16.5903C25.8593 14.9476 25.331 13.5311 24.2824 12.4001L24.2811 12.3986C23.2097 11.249 21.74 10.6408 19.9693 10.522L19.9428 10.5202H19.8633Z" fill="#7D529E"/>
<path d="M19.8333 13.1712C19.3967 13.1483 19.0241 13.4836 19.0011 13.9202C18.9781 14.3568 19.3134 14.7294 19.7501 14.7524C20.4129 14.7873 20.8355 14.9861 21.1011 15.2544C21.368 15.5238 21.5676 15.9552 21.604 16.6317C21.6275 17.0683 22.0004 17.4032 22.437 17.3797C22.8736 17.3562 23.2085 16.9832 23.185 16.5466C23.1339 15.5966 22.8366 14.7567 22.2262 14.1402C21.6145 13.5226 20.7794 13.221 19.8333 13.1712Z" fill="#7D529E"/>
<path fill-rule="evenodd" clip-rule="evenodd" d="M11.189 3.77383C16.2273 2.64761 21.4522 2.64761 26.4905 3.77383L27.0273 3.89382C30.0305 4.56513 32.4009 6.8686 33.1578 9.8514C34.4367 14.8909 34.4367 20.17 33.1578 25.2095C32.4009 28.1923 30.0305 30.4958 27.0273 31.1671L26.4905 31.2871C23.3257 31.9945 20.0873 32.2576 16.8677 32.0763L12.6668 35.835C12.3442 36.1236 11.8902 36.2139 11.4818 36.0705C11.0733 35.9272 10.7753 35.573 10.7038 35.1461L10.009 30.9956C7.31356 30.158 5.22371 27.976 4.52166 25.2095C3.24278 20.17 3.24278 14.8909 4.52166 9.85141C5.27862 6.8686 7.64895 4.56513 10.6522 3.89382L11.189 3.77383ZM25.9724 6.09163C21.2752 5.04168 16.4042 5.04168 11.7071 6.09163L11.1703 6.21162C9.04097 6.68759 7.36038 8.32076 6.8237 10.4356C5.6421 15.0917 5.6421 19.9692 6.8237 24.6253C7.36038 26.7402 9.04097 28.3733 11.1703 28.8493L11.3121 28.881C11.7837 28.9864 12.1445 29.3672 12.2242 29.8439L12.6902 32.6272L15.6548 29.9747C15.8941 29.7605 16.2101 29.6524 16.5305 29.6751C19.6868 29.8986 22.8676 29.6633 25.9724 28.9693L26.5092 28.8493C28.6385 28.3733 30.3191 26.7402 30.8558 24.6253C32.0374 19.9692 32.0374 15.0917 30.8558 10.4356C30.3191 8.32076 28.6385 6.68759 26.5092 6.21162L25.9724 6.09163Z" fill="#7D529E"/>
</svg>
