<svg width="28" height="29" viewBox="0 0 28 29" fill="none" xmlns="http://www.w3.org/2000/svg">
<g clip-path="url(#clip0_2_1255)">
<path fill-rule="evenodd" clip-rule="evenodd" d="M0 13.9292C0 6.23766 6.1893 0.00195312 13.8216 0.00195312C21.4529 0.00195312 27.6431 6.23766 27.6431 13.9292C27.6431 21.618 21.4529 27.8565 13.8216 27.8565C6.1893 27.8565 0 21.618 0 13.9292ZM18.6987 11.7584L8.97296 7.95908V4.66667L18.6987 8.49667V11.7594V11.7584ZM18.6987 22.6533L8.97296 18.853V15.5597C8.97296 15.5597 18.6987 19.3702 18.6987 19.3897V22.6533Z" fill="white"/>
<path opacity="0.24" fill-rule="evenodd" clip-rule="evenodd" d="M18.9447 0.985197C17.5942 0.447792 16.1689 0.125464 14.7199 0.0297852L8.97294 4.66757L12.6412 6.11229L18.9457 0.985197H18.9447ZM15.2286 21.2967L18.6978 22.6533L12.7849 27.8156C11.4135 27.717 10.065 27.4083 8.78589 26.9002L15.2286 21.2967Z" fill="white"/>
<path opacity="0.701" fill-rule="evenodd" clip-rule="evenodd" d="M12.4863 16.9383C10.579 16.189 8.9729 15.5604 8.9729 15.5604L15.2166 10.3989L18.6978 11.7601L12.4873 16.9383H12.4863Z" fill="#D0D0D0"/>
</g>
<defs>
<clipPath id="clip0_2_1255">
<rect width="27.6431" height="28.7831" fill="white"/>
</clipPath>
</defs>
</svg>
